<svg xmlns="http://www.w3.org/2000/svg" xmlns:xlink="http://www.w3.org/1999/xlink" width="1000" zoomAndPan="magnify" viewBox="0 0 750 749.999995" height="1000" preserveAspectRatio="xMidYMid meet" version="1.0"><path fill="#000000" d="M 670.160156 454.355469 L 593.730469 397.9375 L 568.136719 293.992188 C 560.789062 264.148438 544.394531 238.585938 520.695312 220.019531 C 497.015625 201.472656 468.246094 191.65625 437.496094 191.65625 L 429.757812 191.65625 C 458.140625 172.96875 476.917969 140.851562 476.917969 104.410156 C 476.917969 46.835938 430.054688 -0.015625 372.433594 -0.015625 C 314.808594 -0.015625 267.945312 46.820312 267.945312 104.410156 C 267.945312 140.851562 286.722656 172.96875 315.105469 191.65625 L 307.367188 191.65625 C 276.617188 191.65625 247.847656 201.457031 224.167969 220.019531 C 200.484375 238.570312 184.074219 264.148438 176.726562 293.992188 L 151.132812 397.9375 L 74.703125 454.355469 C 63.304688 462.773438 55.863281 475.160156 53.746094 489.242188 C 51.628906 503.324219 55.101562 517.34375 63.507812 528.734375 C 71.292969 539.269531 82.503906 546.425781 95.300781 549.101562 C 89.058594 556.820312 84.324219 565.828125 81.335938 575.945312 L 81.070312 576.832031 C 74.734375 598.195312 77.457031 619.589844 88.964844 638.683594 C 100.453125 657.773438 118.078125 670.207031 139.9375 674.640625 L 188.636719 684.507812 C 183.5625 694.324219 182.191406 706.011719 185.585938 717.464844 L 185.820312 718.242188 C 191.519531 737.472656 208.863281 750 228.167969 750 C 231.125 750 234.144531 749.703125 237.167969 749.097656 L 372.417969 721.710938 L 507.664062 749.097656 C 510.6875 749.703125 513.691406 750 516.648438 750 C 535.953125 750 553.300781 737.472656 558.996094 718.242188 L 559.230469 717.464844 C 562.546875 706.292969 561.238281 694.496094 556.101562 684.523438 L 604.894531 674.640625 C 626.753906 670.222656 644.378906 657.789062 655.867188 638.683594 C 667.359375 619.589844 670.082031 598.195312 663.761719 576.832031 L 663.496094 575.945312 C 660.492188 565.828125 655.773438 556.835938 649.53125 549.101562 C 662.328125 546.410156 673.523438 539.269531 681.324219 528.734375 C 698.761719 505.144531 693.734375 471.785156 670.144531 454.371094 Z M 286.660156 104.425781 C 286.660156 57.136719 325.148438 18.671875 372.460938 18.671875 C 419.777344 18.671875 458.265625 57.136719 458.265625 104.425781 C 458.265625 151.710938 419.777344 190.175781 372.460938 190.175781 C 325.148438 190.175781 286.660156 151.710938 286.660156 104.425781 Z M 483.003906 520.316406 L 483.003906 399.085938 L 491.472656 427.6875 C 498.449219 451.230469 509.8125 468.191406 527.234375 481.058594 L 580.40625 520.316406 Z M 527.765625 538.988281 L 372.445312 600.28125 L 217.128906 538.988281 Z M 261.890625 520.316406 L 164.488281 520.316406 L 217.660156 481.058594 C 235.082031 468.191406 246.445312 451.230469 253.421875 427.6875 L 261.890625 399.070312 Z M 105.015625 629.050781 C 96.171875 614.363281 94.164062 598.570312 99.035156 582.121094 L 99.300781 581.234375 C 104.175781 564.789062 114.464844 552.652344 129.894531 545.136719 C 145.324219 537.621094 161.234375 537.011719 177.195312 543.3125 L 347.023438 610.332031 L 211.882812 663.65625 C 208.691406 664.917969 205.734375 666.503906 203.007812 668.355469 L 143.703125 656.34375 C 126.890625 652.9375 113.875 643.753906 105.03125 629.066406 Z M 541.355469 712.15625 L 541.125 712.9375 C 537.324219 725.773438 524.542969 733.460938 511.417969 730.796875 L 419.496094 712.1875 L 536.53125 688.492188 C 541.917969 694.980469 543.832031 703.863281 541.371094 712.15625 Z M 639.894531 629.050781 C 631.050781 643.753906 618.035156 652.921875 601.222656 656.328125 L 233.492188 730.796875 C 220.351562 733.460938 207.585938 725.789062 203.785156 712.9375 L 203.554688 712.15625 C 199.753906 699.320312 206.277344 685.921875 218.734375 681.007812 L 567.730469 543.296875 C 583.691406 536.996094 599.601562 537.621094 615.03125 545.136719 C 630.460938 552.648438 640.75 564.789062 645.625 581.234375 L 645.890625 582.121094 C 650.761719 598.570312 648.753906 614.347656 639.910156 629.050781 Z M 666.316406 517.625 C 660.867188 525 652.816406 529.824219 643.664062 531.191406 C 634.507812 532.5625 625.398438 530.320312 618.019531 524.875 L 538.335938 466.042969 C 524.355469 455.710938 515.15625 441.847656 509.394531 422.394531 L 482.628906 332.007812 C 481.308594 327.558594 476.917969 324.757812 472.339844 325.410156 C 467.746094 326.078125 464.335938 330.015625 464.335938 334.652344 L 464.335938 520.316406 L 280.589844 520.316406 L 280.589844 334.652344 C 280.589844 330.015625 277.179688 326.078125 272.585938 325.410156 C 268.007812 324.757812 263.601562 327.558594 262.296875 331.992188 L 235.515625 422.378906 C 229.753906 441.832031 220.554688 455.695312 206.574219 466.027344 L 126.890625 524.859375 C 119.511719 530.304688 110.417969 532.546875 101.246094 531.175781 C 92.09375 529.808594 84.058594 524.984375 78.609375 517.609375 C 73.160156 510.234375 70.917969 501.128906 72.289062 491.980469 C 73.660156 482.832031 78.484375 474.804688 85.867188 469.339844 L 165.003906 410.914062 C 166.761719 409.621094 168.007812 407.753906 168.523438 405.636719 L 194.925781 298.429688 C 207.898438 245.726562 253.109375 210.3125 307.429688 210.3125 L 437.527344 210.3125 C 491.832031 210.3125 537.042969 245.726562 550.03125 298.429688 L 576.433594 405.636719 C 576.949219 407.753906 578.195312 409.621094 579.953125 410.914062 L 659.089844 469.339844 C 666.472656 474.789062 671.296875 482.832031 672.667969 491.980469 C 674.039062 501.128906 671.796875 510.234375 666.347656 517.609375 Z M 58.121094 179.84375 L 72.070312 186.410156 C 82.828125 191.46875 90.210938 198.84375 95.269531 209.59375 L 101.839844 223.539062 C 103.378906 226.804688 106.664062 228.90625 110.292969 228.90625 C 113.921875 228.90625 117.207031 226.820312 118.746094 223.539062 L 125.316406 209.59375 C 130.378906 198.84375 137.757812 191.46875 148.515625 186.410156 L 162.464844 179.84375 C 165.734375 178.304688 167.835938 175.019531 167.835938 171.394531 C 167.835938 167.769531 165.75 164.488281 162.464844 162.945312 L 148.515625 156.378906 C 137.757812 151.324219 130.378906 143.945312 125.316406 133.195312 L 118.746094 119.253906 C 117.207031 115.984375 113.921875 113.886719 110.292969 113.886719 C 106.664062 113.886719 103.378906 115.96875 101.839844 119.253906 L 95.269531 133.195312 C 90.210938 143.945312 82.828125 151.324219 72.070312 156.378906 L 58.121094 162.945312 C 54.851562 164.488281 52.75 167.769531 52.75 171.394531 C 52.75 175.019531 54.835938 178.304688 58.121094 179.84375 Z M 110.292969 144.878906 C 116.535156 156.425781 125.269531 165.15625 136.824219 171.394531 C 125.269531 177.636719 116.535156 186.347656 110.292969 197.910156 C 104.050781 186.363281 95.316406 177.636719 83.761719 171.394531 C 95.316406 165.15625 104.050781 156.441406 110.292969 144.878906 Z M 550.917969 75.015625 L 563.464844 80.914062 C 572.929688 85.363281 579.410156 91.835938 583.859375 101.296875 L 589.761719 113.839844 C 591.304688 117.105469 594.589844 119.207031 598.214844 119.207031 C 601.84375 119.207031 605.128906 117.121094 606.671875 113.839844 L 612.570312 101.296875 C 617.023438 91.835938 623.5 85.363281 632.964844 80.914062 L 645.515625 75.015625 C 648.785156 73.476562 650.886719 70.191406 650.886719 66.566406 C 650.886719 62.941406 648.800781 59.65625 645.515625 58.117188 L 632.964844 52.21875 C 623.5 47.769531 617.023438 41.296875 612.570312 31.835938 L 606.671875 19.292969 C 605.128906 16.027344 601.84375 13.925781 598.214844 13.925781 C 594.589844 13.925781 591.304688 16.011719 589.761719 19.292969 L 583.859375 31.835938 C 579.410156 41.296875 572.933594 47.769531 563.464844 52.21875 L 550.917969 58.117188 C 547.648438 59.65625 545.546875 62.941406 545.546875 66.566406 C 545.546875 70.191406 547.632812 73.476562 550.917969 75.015625 Z M 598.199219 44.6875 C 603.554688 54.007812 610.765625 61.230469 620.089844 66.566406 C 610.765625 71.917969 603.539062 79.125 598.199219 88.445312 C 592.84375 79.125 585.621094 71.902344 576.308594 66.566406 C 585.636719 61.214844 592.859375 54.007812 598.199219 44.6875 Z M 598.199219 44.6875 " fill-opacity="1" fill-rule="nonzero"/></svg>