<svg xmlns="http://www.w3.org/2000/svg" xmlns:xlink="http://www.w3.org/1999/xlink" width="1000" zoomAndPan="magnify" viewBox="0 0 750 749.999995" height="1000" preserveAspectRatio="xMidYMid meet" version="1.0"><path fill="#fad6b3" d="M 209.78125 662.269531 L 201.714844 678.027344 L 162.152344 701.398438 L 130.515625 716.976562 L 114.71875 717.613281 C 114.660156 716.832031 114.59375 732.625 130.445312 732.769531 C 138.304688 732.804688 130.515625 724.910156 130.515625 724.910156 C 130.515625 724.910156 146.160156 732.875 161.941406 732.980469 C 169.867188 733.050781 193.648438 725.332031 201.433594 725.402344 C 217.289062 725.507812 209.289062 733.332031 225.074219 733.4375 C 240.859375 733.542969 240.925781 717.75 240.996094 709.890625 C 241.066406 701.960938 233.28125 678.238281 233.28125 678.238281 Z M 209.78125 662.269531 " fill-opacity="1" fill-rule="nonzero"/><path fill="#21324f" d="M 448.144531 450.714844 L 448.496094 395.445312 L 401.566406 339.859375 L 235.105469 425.507812 C 219.324219 433.300781 195.683594 441.054688 195.476562 464.707031 L 193.929688 685.820312 L 233.265625 686.878906 C 241.628906 623.003906 281.613281 552.226562 258.394531 496.746094 Z M 448.144531 450.714844 " fill-opacity="1" fill-rule="nonzero"/><path fill="#eac9a9" d="M 229 180.675781 L 355.484375 165.769531 C 363.410156 165.839844 379.050781 173.839844 378.980469 181.734375 C 378.839844 197.523438 370.910156 205.421875 363.128906 205.351562 L 228.792969 212.257812 C 220.9375 212.1875 212.9375 220.046875 205.082031 212.082031 C 197.296875 212.011719 189.4375 204.117188 197.4375 188.324219 L 197.421875 189.140625 C 205.292969 180.5 213.21875 180.570312 229 180.675781 Z M 229 180.675781 " fill-opacity="1" fill-rule="nonzero"/><path fill="#eac9a9" d="M 213.011719 212.152344 C 213.011719 212.152344 165.589844 219.695312 70.960938 211.128906 C 63.105469 211.058594 63.246094 187.371094 71.101562 187.441406 C 102.667969 187.652344 158.015625 180.148438 205.292969 180.5 C 221.144531 180.605469 213.011719 212.152344 213.011719 212.152344 Z M 213.011719 212.152344 " fill-opacity="1" fill-rule="nonzero"/><path fill="#eac9a9" d="M 47.25 218.847656 C 63.035156 218.953125 70.960938 211.128906 70.960938 211.128906 L 71.101562 187.441406 C 71.101562 187.441406 55.386719 179.441406 47.53125 179.371094 L 23.738281 180.007812 L 23.75 179.191406 C 23.75 179.191406 23.679688 187.089844 23.679688 187.089844 L 39.519531 188.007812 L 39.535156 187.195312 C 39.535156 187.195312 31.605469 187.160156 31.605469 187.160156 L 7.953125 187.796875 C 7.964844 186.984375 7.964844 186.984375 7.894531 194.878906 L 7.953125 195.695312 C 7.894531 194.878906 7.894531 194.878906 7.894531 194.878906 L 31.59375 195.871094 L -0.03125 194.808594 C -0.03125 194.808594 -0.03125 194.808594 -0.03125 202.738281 L -0.0429688 203.519531 C -0.03125 202.738281 -0.03125 202.738281 -0.03125 202.738281 L 31.523438 203.765625 L 7.894531 202.808594 C 7.894531 202.808594 -0.101562 210.597656 7.828125 210.671875 L 7.8125 211.449219 C 7.828125 210.671875 7.828125 210.671875 7.828125 210.671875 L 31.453125 211.625 L 15.753906 210.742188 C 15.753906 210.742188 7.828125 210.671875 7.757812 218.566406 L 7.742188 219.378906 C 7.757812 218.566406 15.683594 218.636719 15.683594 218.636719 C 15.683594 218.636719 39.324219 218.777344 47.25 218.847656 Z M 47.25 218.847656 " fill-opacity="1" fill-rule="nonzero"/><path fill="#fad6b3" d="M 355.902344 102.636719 L 371.601562 103.449219 C 371.613281 102.742188 395.183594 134.503906 402.902344 150.292969 C 410.617188 174.050781 418.332031 205.738281 410.125 245.109375 C 401.988281 284.589844 417.492188 316.277344 417.492188 316.277344 L 346.359375 331.574219 C 346.359375 331.574219 323.074219 276.09375 323.351562 244.511719 C 323.351562 244.511719 299.644531 228.542969 307.78125 204.960938 C 315.707031 197.066406 339.628906 165.660156 355.550781 149.941406 C 355.621094 142.082031 347.765625 134.183594 339.90625 126.183594 Z M 355.902344 102.636719 " fill-opacity="1" fill-rule="nonzero"/><path fill="#8e6435" d="M 419.386719 55.652344 C 435.097656 63.6875 458.949219 40.144531 443.304688 16.351562 C 435.589844 0.523438 403.957031 8.175781 403.742188 31.894531 C 403.742188 39.753906 419.386719 55.652344 419.386719 55.652344 Z M 419.386719 55.652344 " fill-opacity="1" fill-rule="nonzero"/><path fill="#fcb030" d="M 419.386719 55.652344 L 419.371094 56.503906 C 419.386719 55.652344 419.527344 32 403.742188 31.894531 L 403.730469 32.675781 Z M 419.386719 55.652344 " fill-opacity="1" fill-rule="nonzero"/><path fill="#8e6435" d="M 332.613281 55.019531 C 324.753906 47.121094 324.824219 39.191406 340.609375 23.503906 C 348.609375 15.679688 396.097656 8.101562 411.527344 47.722656 C 427.171875 79.445312 403.183594 110.851562 379.402344 118.535156 C 371.472656 126.394531 363.757812 110.570312 363.757812 110.570312 C 363.757812 110.570312 340.257812 70.878906 332.613281 55.019531 Z M 332.613281 55.019531 " fill-opacity="1" fill-rule="nonzero"/><path fill="#fad6b3" d="M 332.753906 39.226562 C 332.753906 39.226562 332.753906 39.226562 324.753906 47.121094 C 324.6875 54.984375 324.6875 54.984375 324.6875 54.984375 C 324.617188 62.914062 324.546875 70.773438 316.621094 78.632812 C 308.691406 78.597656 308.691406 78.597656 308.691406 78.597656 C 308.691406 78.597656 300.695312 86.386719 308.625 86.457031 C 308.625 86.457031 316.550781 86.492188 316.480469 94.425781 C 316.480469 94.425781 308.550781 94.390625 308.550781 94.390625 C 308.550781 94.390625 308.480469 102.320312 316.40625 102.355469 C 308.480469 102.320312 308.410156 110.179688 308.410156 110.179688 C 316.339844 110.214844 316.339844 110.214844 308.34375 118.039062 C 308.34375 118.039062 308.339844 125.972656 324.195312 126.078125 C 332.121094 126.113281 347.835938 126.253906 371.542969 110.601562 C 371.542969 110.601562 379.472656 110.675781 387.535156 94.953125 C 387.679688 79.164062 371.824219 79.019531 371.753906 86.882812 C 371.683594 94.8125 363.828125 102.707031 363.828125 102.707031 C 363.828125 102.707031 363.898438 94.777344 364.039062 78.988281 C 364.039062 78.988281 340.328125 63.015625 332.753906 39.226562 Z M 332.753906 39.226562 " fill-opacity="1" fill-rule="nonzero"/><path fill="#fcb030" d="M 417.492188 316.277344 C 417.492188 316.277344 401.988281 284.589844 410.125 245.109375 C 418.332031 205.738281 410.617188 174.050781 402.902344 150.292969 C 387.1875 142.328125 371.195312 157.976562 355.410156 173.664062 C 347.273438 197.3125 323.703125 189.242188 323.703125 189.242188 L 323.6875 190.054688 C 315.707031 197.066406 315.707031 205 307.78125 204.960938 C 299.644531 228.542969 323.351562 244.511719 323.351562 244.511719 C 323.074219 276.09375 338.363281 339.398438 361.933594 371.160156 L 449.058594 324.351562 Z M 417.492188 316.277344 " fill-opacity="1" fill-rule="nonzero"/><path fill="#fad6b3" d="M 521.097656 174.863281 L 394.972656 158.152344 C 387.046875 158.117188 371.195312 165.90625 371.050781 181.699219 C 370.980469 189.558594 378.835938 205.457031 394.691406 205.5625 L 520.816406 214.339844 C 528.746094 214.375 536.671875 214.445312 544.527344 214.515625 C 552.453125 206.691406 560.378906 198.832031 552.59375 182.96875 L 552.582031 183.78125 C 544.738281 182.933594 536.953125 174.96875 529.027344 174.898438 C 529.027344 174.898438 529.027344 174.898438 521.097656 174.863281 Z M 521.097656 174.863281 " fill-opacity="1" fill-rule="nonzero"/><path fill="#fad6b3" d="M 536.671875 214.445312 C 536.671875 214.445312 591.808594 222.730469 678.652344 215.46875 C 686.578125 215.503906 686.71875 191.816406 678.792969 191.78125 C 647.226562 191.535156 592.160156 175.355469 544.738281 182.933594 C 536.882812 182.863281 536.671875 214.445312 536.671875 214.445312 Z M 536.671875 214.445312 " fill-opacity="1" fill-rule="nonzero"/><path fill="#fad6b3" d="M 710.148438 223.574219 C 686.507812 223.398438 678.652344 215.46875 678.652344 215.46875 L 678.792969 191.78125 C 686.71875 191.816406 694.785156 176.097656 702.714844 176.167969 L 734.265625 177.160156 L 734.210938 184.277344 C 734.210938 184.277344 726.28125 184.203125 726.28125 184.203125 L 718.339844 184.984375 L 710.359375 191.992188 C 710.359375 191.992188 718.285156 192.0625 718.285156 192.0625 L 741.980469 193.054688 C 749.851562 192.273438 749.851562 192.273438 749.851562 192.273438 L 749.835938 193.089844 C 749.851562 192.273438 749.851562 192.273438 741.996094 192.242188 L 726.140625 199.996094 L 749.835938 200.984375 C 749.78125 200.171875 749.78125 200.171875 749.78125 200.171875 L 749.835938 200.984375 C 749.78125 200.171875 749.78125 200.171875 749.78125 200.171875 L 718.214844 207.890625 L 741.910156 208.847656 C 749.78125 208.101562 749.78125 208.101562 749.78125 208.101562 L 749.765625 208.882812 C 749.78125 208.101562 749.78125 208.101562 741.925781 208.066406 L 718.144531 215.75 L 741.839844 216.707031 C 741.855469 215.929688 741.855469 215.929688 741.855469 215.929688 L 741.839844 216.707031 C 741.855469 215.929688 741.855469 215.929688 741.855469 215.929688 C 741.855469 215.929688 718.074219 223.648438 710.148438 223.574219 Z M 710.148438 223.574219 " fill-opacity="1" fill-rule="nonzero"/><path fill="#fad6b3" d="M 723.054688 634.324219 C 715.128906 634.289062 707.273438 626.320312 707.273438 626.320312 L 675.5625 641.902344 L 683.421875 657.726562 L 683.070312 705.101562 L 683.054688 705.953125 C 683 713.03125 683 713.03125 675.074219 712.996094 L 675.058594 713.773438 L 659.289062 720.75 C 659.289062 720.75 659.222656 736.542969 674.933594 736.648438 C 682.929688 728.824219 682.929688 728.824219 690.855469 728.894531 C 690.855469 728.894531 690.855469 728.894531 698.785156 728.96875 C 706.570312 729 706.570312 729 714.566406 713.277344 C 714.636719 705.347656 714.777344 689.558594 722.703125 681.730469 C 722.773438 673.800781 722.773438 673.800781 730.773438 665.976562 C 738.765625 650.257812 730.910156 642.289062 723.054688 634.324219 Z M 723.054688 634.324219 " fill-opacity="1" fill-rule="nonzero"/><path fill="#384966" d="M 558.066406 522.621094 L 495.914062 387.902344 C 495.914062 387.902344 488.339844 340.457031 449.058594 324.351562 L 449.042969 325.199219 L 361.933594 371.160156 C 361.933594 371.160156 369.507812 394.914062 377.363281 410.777344 C 424.222656 482.15625 534.148438 569.820312 534.148438 569.820312 L 683.421875 657.726562 L 707.273438 626.320312 C 636.417969 594.246094 636.84375 538.976562 558.066406 522.621094 Z M 558.066406 522.621094 " fill-opacity="1" fill-rule="nonzero"/></svg>