<svg xmlns="http://www.w3.org/2000/svg" xmlns:xlink="http://www.w3.org/1999/xlink" width="1000" zoomAndPan="magnify" viewBox="0 0 750 749.999995" height="1000" preserveAspectRatio="xMidYMid meet" version="1.0"><defs><clipPath id="309960f6d9"><path d="M 57.109375 28.054688 L 693.109375 28.054688 L 693.109375 721.804688 L 57.109375 721.804688 Z M 57.109375 28.054688 " clip-rule="nonzero"/></clipPath></defs><g clip-path="url(#309960f6d9)"><path fill="#000000" d="M 345.441406 30.554688 L 346.402344 30.273438 C 348.015625 29.832031 349.609375 29.53125 351.132812 29.40625 C 353.898438 29.171875 357.054688 28.976562 360.601562 28.828125 C 364.15625 28.679688 367.3125 28.601562 370.042969 28.601562 C 372.785156 28.601562 375.945312 28.679688 379.507812 28.828125 C 383.046875 28.976562 386.191406 29.171875 388.949219 29.40625 C 394.726562 29.890625 399.949219 32.246094 404.015625 35.925781 C 408.070312 39.597656 410.925781 44.5625 411.984375 50.277344 L 415.410156 68.75 C 415.710938 70.378906 416.40625 71.785156 417.390625 72.855469 L 417.40625 72.839844 C 418.417969 73.929688 419.773438 74.738281 421.363281 75.160156 C 429.253906 77.246094 436.917969 79.84375 444.292969 82.898438 C 451.765625 85.996094 459.011719 89.589844 465.976562 93.636719 C 467.429688 94.484375 468.972656 94.875 470.449219 94.820312 C 471.902344 94.765625 473.386719 94.261719 474.75 93.324219 L 487.886719 84.292969 C 492.839844 80.882812 498.550781 79.398438 504.128906 79.78125 C 509.730469 80.160156 515.203125 82.402344 519.644531 86.433594 C 523.105469 89.578125 526.539062 92.910156 529.921875 96.402344 C 533.289062 99.878906 536.519531 103.433594 539.589844 107.046875 C 539.761719 107.25 539.925781 107.460938 540.078125 107.679688 C 543.539062 112.003906 545.425781 117.113281 545.691406 122.296875 C 545.972656 127.757812 544.484375 133.289062 541.191406 138.082031 L 540.984375 138.371094 L 532.359375 150.914062 C 531.425781 152.269531 530.925781 153.75 530.871094 155.210938 C 530.816406 156.683594 531.207031 158.222656 532.050781 159.671875 C 536.101562 166.640625 539.703125 173.890625 542.804688 181.363281 C 545.863281 188.734375 548.460938 196.382812 550.542969 204.261719 C 550.964844 205.851562 551.777344 207.207031 552.863281 208.214844 C 553.945312 209.214844 555.347656 209.914062 556.957031 210.210938 L 571.085938 212.820312 C 576.921875 213.902344 581.960938 216.824219 585.625 220.945312 C 589.304688 225.085938 591.621094 230.433594 592.003906 236.347656 C 592.144531 238.496094 592.257812 240.925781 592.339844 243.613281 C 592.441406 246.660156 592.488281 249.085938 592.488281 250.921875 C 592.488281 252.761719 592.441406 255.183594 592.339844 258.226562 C 592.257812 260.917969 592.144531 263.351562 592.003906 265.496094 C 591.621094 271.410156 589.308594 276.757812 585.628906 280.898438 C 581.960938 285.023438 576.921875 287.945312 571.085938 289.023438 L 556.960938 291.632812 C 555.347656 291.929688 553.945312 292.628906 552.867188 293.628906 L 552.53125 293.921875 C 551.621094 294.871094 550.933594 296.117188 550.542969 297.585938 C 548.460938 305.464844 545.859375 313.117188 542.804688 320.484375 C 539.703125 327.957031 536.101562 335.207031 532.050781 342.171875 C 531.207031 343.621094 530.816406 345.160156 530.871094 346.640625 C 530.925781 348.09375 531.421875 349.574219 532.359375 350.933594 L 541.15625 363.726562 C 541.292969 363.929688 541.425781 364.128906 541.542969 364.339844 C 544.585938 369.023438 545.957031 374.328125 545.691406 379.546875 C 545.414062 384.976562 543.355469 390.328125 539.570312 394.785156 L 539.589844 394.800781 C 536.515625 398.414062 533.289062 401.96875 529.917969 405.449219 L 529.871094 405.496094 C 526.503906 408.972656 523.089844 412.28125 519.644531 415.414062 C 515.210938 419.445312 509.746094 421.6875 504.136719 422.066406 C 498.558594 422.445312 492.84375 420.960938 487.890625 417.554688 L 474.75 408.519531 C 473.386719 407.585938 471.90625 407.082031 470.449219 407.027344 C 468.976562 406.972656 467.433594 407.367188 465.976562 408.214844 C 459.011719 412.261719 451.765625 415.859375 444.292969 418.953125 C 436.910156 422.011719 429.253906 424.609375 421.363281 426.695312 C 419.773438 427.113281 418.417969 427.921875 417.40625 429.015625 L 417.125 429.300781 C 416.28125 430.328125 415.683594 431.621094 415.410156 433.097656 L 411.984375 451.5625 C 410.929688 457.277344 408.074219 462.242188 404.019531 465.910156 C 399.957031 469.59375 394.734375 471.945312 388.953125 472.4375 C 386.183594 472.667969 383.035156 472.867188 379.476562 473.015625 C 375.925781 473.167969 372.78125 473.242188 370.042969 473.242188 C 367.3125 473.242188 364.164062 473.167969 360.617188 473.015625 C 357.058594 472.867188 353.902344 472.667969 351.128906 472.4375 C 350.671875 472.398438 350.121094 472.324219 349.480469 472.21875 C 343.355469 474.46875 336.722656 475.699219 329.804688 475.699219 C 314.359375 475.699219 300.339844 469.570312 290.179688 459.660156 C 282.242188 451.917969 276.652344 441.878906 274.546875 430.664062 L 273.292969 430.761719 C 271.695312 430.871094 270.226562 430.929688 268.890625 430.929688 C 252.480469 430.929688 237.574219 424.765625 226.738281 414.808594 C 215.710938 404.671875 208.890625 390.625 208.890625 375.074219 C 208.890625 369.132812 209.898438 363.394531 211.761719 358.007812 C 202.765625 354.339844 194.921875 348.679688 188.894531 341.636719 C 180.714844 332.074219 175.832031 319.996094 175.832031 306.867188 C 175.832031 302.476562 176.386719 298.195312 177.425781 294.085938 C 172.160156 289.632812 167.738281 284.292969 164.429688 278.328125 L 164.414062 278.335938 C 160.144531 270.628906 157.734375 261.925781 157.734375 252.75 C 157.734375 242.757812 160.574219 233.351562 165.554688 225.195312 C 169.207031 219.210938 174.011719 213.917969 179.683594 209.578125 C 178.765625 207.417969 177.972656 205.199219 177.328125 202.925781 C 175.933594 198.039062 175.1875 192.929688 175.1875 187.679688 C 175.1875 171.191406 182.421875 156.300781 194.113281 145.554688 C 198.414062 141.601562 203.320312 138.210938 208.6875 135.515625 C 208.492188 134.8125 208.3125 134.105469 208.152344 133.394531 C 207.308594 129.714844 206.863281 125.957031 206.863281 122.175781 C 206.863281 107.253906 213.410156 93.773438 223.988281 84.054688 C 234.371094 74.507812 248.664062 68.601562 264.386719 68.601562 C 267.136719 68.601562 269.886719 68.789062 272.613281 69.15625 C 275.164062 59.316406 280.636719 50.539062 288.128906 43.648438 C 298.515625 34.105469 312.804688 28.195312 328.53125 28.195312 C 334.410156 28.195312 340.089844 29.023438 345.441406 30.554688 Z M 205.960938 635.953125 C 201.75 637.921875 198.171875 640.910156 195.492188 644.558594 C 191.355469 650.199219 189.359375 657.402344 190.492188 664.804688 L 195.664062 698.472656 C 196.808594 705.914062 200.882812 712.207031 206.527344 716.347656 C 212.167969 720.484375 219.378906 722.480469 226.789062 721.347656 L 347.019531 702.898438 C 354.464844 701.757812 360.765625 697.679688 364.90625 692.039062 C 369.046875 686.402344 371.042969 679.191406 369.910156 671.789062 L 364.738281 638.121094 C 363.589844 630.679688 359.515625 624.386719 353.871094 620.246094 C 350.21875 617.566406 345.90625 615.789062 341.3125 615.171875 L 332.859375 560.140625 C 332.808594 559.816406 332.742188 559.496094 332.65625 559.1875 C 330.222656 546.007812 325.4375 533.976562 318.3125 523.105469 C 310.992188 511.941406 301.226562 502.023438 289.027344 493.347656 L 207.542969 433.765625 C 200.316406 428.480469 191.605469 426.609375 183.414062 427.867188 C 175.398438 429.097656 167.824219 433.300781 162.539062 440.191406 C 162.238281 440.539062 161.96875 440.90625 161.734375 441.285156 C 158.734375 445.546875 156.90625 450.292969 156.191406 455.136719 L 152.5 452.441406 L 126.074219 279.835938 C 123.691406 264.347656 112.984375 255.972656 100.589844 253.523438 C 96.113281 252.644531 91.417969 252.574219 86.878906 253.265625 C 82.34375 253.949219 77.886719 255.410156 73.875 257.570312 C 62.953125 263.449219 55.382812 274.238281 57.476562 288.824219 L 62.332031 471.292969 C 62.339844 472.886719 62.378906 474.46875 62.457031 476.039062 L 62.460938 476.148438 L 62.476562 476.457031 C 63.195312 490.390625 66.5 503.417969 72.394531 515.53125 C 79.027344 529.164062 88.894531 541.585938 101.976562 552.78125 L 101.984375 552.785156 L 102.148438 552.925781 L 102.152344 552.929688 C 102.394531 553.125 102.640625 553.300781 102.894531 553.464844 C 115.96875 562.507812 128.296875 570.726562 143.886719 580.609375 C 159.0625 590.238281 177.578125 601.628906 203.054688 617.054688 Z M 647.328125 553.464844 C 647.582031 553.300781 647.828125 553.125 648.070312 552.929688 L 648.074219 552.925781 L 648.238281 552.785156 L 648.246094 552.78125 C 661.328125 541.585938 671.191406 529.164062 677.828125 515.53125 C 683.710938 503.433594 687.015625 490.421875 687.738281 476.507812 L 687.757812 476.148438 L 687.765625 476.039062 C 687.839844 474.46875 687.882812 472.886719 687.890625 471.292969 L 692.742188 288.824219 C 694.839844 274.238281 687.269531 263.449219 676.347656 257.570312 C 672.332031 255.410156 667.878906 253.949219 663.34375 253.265625 C 658.800781 252.574219 654.109375 252.644531 649.632812 253.523438 C 637.234375 255.972656 626.527344 264.347656 624.148438 279.835938 L 597.722656 452.441406 L 594.03125 455.140625 C 593.3125 450.296875 591.484375 445.546875 588.488281 441.285156 C 588.253906 440.90625 587.984375 440.539062 587.679688 440.191406 C 582.398438 433.300781 574.824219 429.097656 566.808594 427.867188 C 558.613281 426.609375 549.90625 428.480469 542.675781 433.765625 L 461.191406 493.347656 C 448.992188 502.023438 439.230469 511.941406 431.910156 523.105469 C 424.78125 533.976562 419.996094 546.007812 417.5625 559.1875 C 417.476562 559.496094 417.414062 559.816406 417.363281 560.140625 L 408.910156 615.171875 C 404.3125 615.789062 400 617.570312 396.351562 620.246094 C 390.707031 624.386719 386.628906 630.683594 385.484375 638.121094 L 380.3125 671.789062 C 379.179688 679.191406 381.175781 686.402344 385.316406 692.039062 C 389.457031 697.679688 395.757812 701.757812 403.199219 702.898438 L 523.433594 721.347656 C 530.839844 722.480469 538.050781 720.484375 543.691406 716.347656 C 549.335938 712.207031 553.414062 705.914062 554.558594 698.472656 L 559.726562 664.804688 C 560.863281 657.402344 558.867188 650.199219 554.730469 644.558594 C 552.050781 640.910156 548.472656 637.921875 544.261719 635.953125 L 547.167969 617.054688 C 572.644531 601.632812 591.15625 590.242188 606.335938 580.609375 C 621.921875 570.726562 634.246094 562.507812 647.328125 553.464844 Z M 647.328125 553.464844 " fill-opacity="1" fill-rule="evenodd"/></g><path fill="#ffddcf" d="M 530.546875 610.417969 Z M 570.824219 472.105469 Z M 471.179688 507.605469 C 460.835938 514.980469 452.605469 523.332031 446.5 532.640625 C 440.613281 541.617188 436.660156 551.523438 434.652344 562.351562 L 434.605469 562.730469 L 426.308594 616.738281 L 527.195312 632.21875 L 530.546875 610.417969 C 530.921875 607.941406 532.351562 605.644531 534.667969 604.253906 C 561.761719 587.867188 581.160156 575.945312 596.996094 565.894531 C 612.863281 555.832031 624.917969 547.820312 637.238281 539.300781 C 648.324219 529.757812 656.632812 519.308594 662.152344 507.964844 C 667.039062 497.921875 669.785156 487.117188 670.386719 475.5625 L 675.382812 287.667969 C 675.386719 287.296875 675.421875 286.933594 675.476562 286.578125 L 675.449219 286.578125 C 676.417969 280.28125 673.007812 275.535156 668.101562 272.898438 C 665.898438 271.710938 663.375 270.894531 660.75 270.5 C 658.132812 270.101562 655.46875 270.132812 652.96875 270.625 C 647.328125 271.738281 642.453125 275.5 641.390625 282.425781 L 614.417969 458.617188 C 614.035156 461.167969 612.578125 463.292969 610.574219 464.605469 L 581.5625 485.816406 C 581.273438 486.058594 580.972656 486.273438 580.664062 486.472656 L 538.375 517.492188 C 534.496094 520.332031 529.046875 519.492188 526.203125 515.621094 C 523.363281 511.746094 524.203125 506.296875 528.078125 503.457031 L 570.640625 472.242188 L 570.761719 472.152344 L 570.828125 472.101562 C 574.148438 469.664062 576.175781 466.070312 576.765625 462.261719 C 577.351562 458.4375 576.507812 454.402344 574.09375 451.085938 L 574.054688 451.03125 C 571.617188 447.707031 568.027344 445.683594 564.21875 445.101562 C 560.367188 444.507812 556.300781 445.363281 552.972656 447.800781 L 476.316406 503.851562 C 475.875 504.320312 475.371094 504.742188 474.808594 505.113281 C 473.59375 505.917969 472.410156 506.730469 471.246094 507.558594 Z M 471.179688 507.605469 " fill-opacity="1" fill-rule="evenodd"/><path fill="#6ac8eb" d="M 534.25 650.933594 L 414.019531 632.484375 C 411.308594 632.070312 408.683594 632.789062 406.644531 634.28125 C 404.609375 635.773438 403.140625 638.039062 402.726562 640.710938 L 397.558594 674.378906 C 397.140625 677.089844 397.859375 679.714844 399.359375 681.75 C 400.851562 683.785156 403.121094 685.257812 405.792969 685.664062 L 526.023438 704.113281 C 528.734375 704.527344 531.363281 703.808594 533.398438 702.3125 C 535.433594 700.820312 536.90625 698.554688 537.316406 695.882812 L 542.484375 662.214844 C 542.898438 659.503906 542.179688 656.882812 540.6875 654.847656 C 539.191406 652.8125 536.925781 651.34375 534.25 650.933594 Z M 534.25 650.933594 " fill-opacity="1" fill-rule="evenodd"/><path fill="#6ac8eb" d="M 352.664062 674.378906 L 347.492188 640.710938 C 347.082031 638.039062 345.613281 635.773438 343.578125 634.28125 C 341.539062 632.789062 338.914062 632.070312 336.203125 632.484375 L 215.972656 650.933594 C 213.296875 651.34375 211.03125 652.8125 209.535156 654.847656 C 208.042969 656.882812 207.320312 659.503906 207.738281 662.214844 L 212.90625 695.882812 C 213.316406 698.554688 214.785156 700.820312 216.820312 702.3125 C 218.859375 703.808594 221.488281 704.527344 224.199219 704.113281 L 344.429688 685.664062 C 347.101562 685.257812 349.371094 683.785156 350.863281 681.75 C 352.359375 679.714844 353.078125 677.089844 352.664062 674.378906 Z M 352.664062 674.378906 " fill-opacity="1" fill-rule="evenodd"/><path fill="#ffddcf" d="M 179.394531 472.101562 Z M 219.671875 610.417969 Z M 223.027344 632.21875 L 323.914062 616.738281 L 315.613281 562.730469 L 315.566406 562.351562 C 313.558594 551.523438 309.609375 541.617188 303.722656 532.640625 C 297.617188 523.332031 289.386719 514.980469 279.042969 507.605469 L 278.976562 507.558594 C 277.816406 506.730469 276.628906 505.917969 275.410156 505.113281 C 274.851562 504.742188 274.347656 504.320312 273.90625 503.851562 L 197.25 447.800781 C 193.917969 445.363281 189.855469 444.507812 186.003906 445.101562 C 182.195312 445.683594 178.605469 447.707031 176.167969 451.03125 L 176.125 451.085938 C 173.714844 454.402344 172.871094 458.4375 173.457031 462.261719 C 174.042969 466.070312 176.074219 469.664062 179.398438 472.105469 L 179.460938 472.152344 L 179.578125 472.242188 L 222.140625 503.457031 C 226.019531 506.296875 226.859375 511.746094 224.015625 515.621094 C 221.175781 519.492188 215.722656 520.332031 211.847656 517.492188 L 169.558594 486.472656 C 169.25 486.273438 168.945312 486.058594 168.660156 485.816406 L 139.644531 464.605469 C 137.644531 463.292969 136.1875 461.167969 135.804688 458.617188 L 108.832031 282.425781 C 107.769531 275.5 102.894531 271.738281 97.25 270.625 C 94.753906 270.132812 92.085938 270.101562 89.46875 270.5 C 86.847656 270.894531 84.324219 271.710938 82.121094 272.898438 C 77.21875 275.535156 73.804688 280.28125 74.773438 286.578125 L 74.746094 286.578125 C 74.800781 286.933594 74.832031 287.296875 74.839844 287.667969 L 79.839844 475.613281 C 80.441406 487.148438 83.191406 497.933594 88.070312 507.964844 C 93.585938 519.304688 101.894531 529.757812 112.980469 539.300781 C 125.300781 547.816406 137.359375 555.832031 153.222656 565.894531 C 169.058594 575.941406 188.460938 587.867188 215.554688 604.253906 C 217.867188 605.644531 219.300781 607.941406 219.679688 610.417969 Z M 223.027344 632.21875 " fill-opacity="1" fill-rule="evenodd"/><path fill="#ffc807" d="M 385.980469 420.699219 C 385.980469 434.027344 381.121094 446.253906 373.035156 455.785156 C 375.167969 455.761719 377.085938 455.714844 378.792969 455.644531 C 381.34375 455.535156 384.269531 455.339844 387.527344 455.0625 C 389.4375 454.902344 391.117188 454.167969 392.367188 453.035156 C 393.628906 451.890625 394.53125 450.296875 394.875 448.429688 L 398.300781 429.964844 C 399.164062 425.300781 401.195312 421.148438 404.140625 417.769531 C 404.300781 417.5625 404.476562 417.359375 404.65625 417.160156 C 407.875 413.699219 412.0625 411.160156 416.929688 409.871094 C 423.992188 408.003906 430.90625 405.65625 437.613281 402.878906 C 444.417969 400.058594 450.980469 396.804688 457.253906 393.160156 C 461.582031 390.644531 466.332031 389.480469 471.0625 389.65625 C 475.8125 389.832031 480.484375 391.359375 484.632812 394.214844 L 497.773438 403.246094 C 499.363281 404.339844 501.195312 404.8125 502.980469 404.691406 C 504.742188 404.574219 506.484375 403.84375 507.921875 402.539062 C 511.242188 399.523438 514.40625 396.460938 517.398438 393.371094 L 517.445312 393.320312 C 520.464844 390.203125 523.421875 386.945312 526.296875 383.558594 L 526.320312 383.578125 L 526.332031 383.558594 C 527.554688 382.125 528.21875 380.402344 528.308594 378.664062 C 528.390625 377.039062 527.976562 375.378906 527.0625 373.90625 L 526.839844 373.601562 L 518.042969 360.8125 C 515.191406 356.671875 513.667969 352 513.488281 347.253906 C 513.3125 342.527344 514.472656 337.78125 516.988281 333.453125 C 520.636719 327.179688 523.894531 320.613281 526.714844 313.8125 C 529.496094 307.109375 531.84375 300.210938 533.710938 293.15625 C 534.921875 288.59375 537.253906 284.605469 540.449219 281.453125 C 540.625 281.257812 540.808594 281.070312 541.003906 280.886719 C 544.476562 277.667969 548.867188 275.449219 553.824219 274.535156 L 567.949219 271.921875 C 569.820312 271.578125 571.4375 270.636719 572.609375 269.320312 C 573.765625 268.015625 574.5 266.308594 574.621094 264.410156 C 574.78125 261.917969 574.894531 259.675781 574.957031 257.683594 C 575.011719 256.0625 575.039062 253.792969 575.039062 250.921875 C 575.039062 248.054688 575.011719 245.78125 574.957031 244.160156 C 574.894531 242.171875 574.78125 239.929688 574.621094 237.4375 C 574.5 235.535156 573.765625 233.828125 572.605469 232.527344 C 571.433594 231.207031 569.820312 230.269531 567.949219 229.921875 L 553.820312 227.3125 C 548.859375 226.394531 544.476562 224.171875 541.003906 220.953125 C 537.539062 217.746094 535 213.558594 533.710938 208.691406 C 531.84375 201.640625 529.496094 194.738281 526.71875 188.039062 C 523.894531 181.230469 520.636719 174.667969 516.988281 168.390625 C 514.472656 164.070312 513.3125 159.320312 513.488281 154.597656 C 513.667969 149.847656 515.191406 145.179688 518.042969 141.035156 L 526.65625 128.511719 L 526.8125 128.273438 C 527.902344 126.6875 528.394531 124.902344 528.308594 123.179688 C 528.226562 121.589844 527.667969 120.019531 526.636719 118.664062 L 526.296875 118.289062 C 523.421875 114.90625 520.464844 111.648438 517.445312 108.53125 L 517.414062 108.496094 C 514.417969 105.398438 511.246094 102.328125 507.921875 99.308594 C 506.484375 98 504.738281 97.273438 502.972656 97.152344 C 501.1875 97.03125 499.355469 97.507812 497.769531 98.601562 L 484.632812 107.632812 C 480.488281 110.484375 475.816406 112.011719 471.0625 112.191406 C 466.335938 112.371094 461.582031 111.210938 457.253906 108.691406 C 450.980469 105.046875 444.417969 101.796875 437.617188 98.976562 C 430.910156 96.199219 423.996094 93.851562 416.933594 91.980469 C 412.0625 90.695312 407.875 88.15625 404.660156 84.695312 L 404.675781 84.675781 L 404.660156 84.660156 C 401.433594 81.179688 399.214844 76.816406 398.300781 71.886719 L 394.875 53.414062 C 394.53125 51.542969 393.625 49.945312 392.363281 48.800781 C 391.113281 47.671875 389.4375 46.9375 387.519531 46.777344 C 384.269531 46.503906 381.363281 46.308594 378.824219 46.203125 C 376.683594 46.113281 374.203125 46.058594 371.390625 46.046875 C 380.515625 55.53125 386.054688 68.039062 386.054688 81.769531 C 386.054688 82.078125 386.039062 82.382812 386.007812 82.683594 L 386 83.160156 L 385.996094 83.433594 L 386 83.433594 L 385.976562 84.011719 L 385.980469 84.335938 L 385.980469 126.40625 C 415.648438 130.160156 442.089844 144.261719 461.5625 164.964844 C 482.699219 187.441406 495.65625 217.683594 495.65625 250.921875 C 495.65625 284.164062 482.703125 314.40625 461.5625 336.878906 C 442.089844 357.585938 415.648438 371.683594 385.980469 375.4375 Z M 385.980469 420.699219 " fill-opacity="1" fill-rule="evenodd"/><path fill="#e5e9f7" d="M 385.980469 357.875 C 410.632812 354.242188 432.585938 342.289062 448.882812 324.960938 C 467.0625 305.632812 478.203125 279.585938 478.203125 250.921875 C 478.203125 222.261719 467.0625 196.214844 448.882812 176.882812 C 432.585938 159.558594 410.632812 147.601562 385.980469 143.96875 Z M 385.980469 357.875 " fill-opacity="1" fill-rule="evenodd"/><path fill="#f14b4e" d="M 368.625 82.683594 Z M 368.53125 351.515625 L 368.53125 271.003906 L 367.285156 271.605469 C 360.71875 274.628906 353.316406 276.050781 345.640625 275.421875 C 339.070312 274.878906 332.929688 272.871094 327.527344 269.746094 C 321.957031 266.527344 317.191406 262.097656 313.5625 256.847656 C 310.835938 252.898438 311.828125 247.484375 315.78125 244.757812 C 319.734375 242.03125 325.152344 243.019531 327.878906 246.972656 C 330.046875 250.101562 332.902344 252.757812 336.25 254.695312 C 339.433594 256.535156 343.101562 257.722656 347.070312 258.046875 C 351.6875 258.429688 356.105469 257.589844 359.996094 255.796875 C 363.246094 254.304688 366.152344 252.144531 368.53125 249.480469 L 368.53125 84.335938 C 368.53125 83.988281 368.550781 83.644531 368.589844 83.308594 L 368.625 82.683594 L 368.628906 82.414062 L 368.605469 81.769531 C 368.605469 71.921875 364.222656 62.964844 357.144531 56.457031 C 349.871094 49.777344 339.757812 45.640625 328.53125 45.640625 C 317.304688 45.640625 307.191406 49.777344 299.921875 56.457031 C 292.84375 62.964844 288.460938 71.921875 288.460938 81.769531 C 288.460938 88.089844 290.226562 94 293.324219 99.101562 C 295.375 102.484375 298.015625 105.539062 301.132812 108.164062 L 301.582031 107.707031 C 309.285156 100.007812 319.929688 95.242188 331.679688 95.242188 C 333.417969 95.242188 335.285156 95.378906 337.261719 95.636719 C 339.222656 95.894531 341.054688 96.257812 342.75 96.710938 C 347.398438 97.953125 350.160156 102.726562 348.921875 107.371094 C 347.679688 112.015625 342.902344 114.777344 338.253906 113.535156 C 337.113281 113.230469 336.027344 113.003906 335.011719 112.871094 C 334.078125 112.75 332.964844 112.683594 331.679688 112.683594 C 324.746094 112.683594 318.464844 115.496094 313.921875 120.035156 C 309.378906 124.578125 306.566406 130.855469 306.566406 137.789062 C 306.566406 140.21875 306.902344 142.554688 307.53125 144.746094 C 308.203125 147.09375 309.160156 149.242188 310.34375 151.136719 C 312.882812 155.195312 311.648438 160.550781 307.585938 163.089844 C 303.519531 165.628906 298.164062 164.390625 295.625 160.332031 C 293.496094 156.9375 291.84375 153.296875 290.761719 149.515625 C 289.691406 145.777344 289.113281 141.835938 289.113281 137.789062 C 289.113281 132.570312 290.058594 127.570312 291.777344 122.949219 C 286.441406 118.808594 281.914062 113.777344 278.464844 108.09375 C 274.519531 101.59375 271.984375 94.296875 271.238281 86.554688 L 270.949219 86.511719 C 268.863281 86.203125 266.667969 86.042969 264.386719 86.042969 C 253.167969 86.042969 243.050781 90.179688 235.78125 96.863281 C 228.699219 103.371094 224.316406 112.328125 224.316406 122.175781 C 224.316406 124.75 224.59375 127.207031 225.121094 129.511719 L 225.195312 129.816406 C 229.601562 128.917969 234.175781 128.441406 238.871094 128.441406 C 240.804688 128.441406 242.957031 128.558594 245.300781 128.773438 C 247.558594 128.984375 249.6875 129.285156 251.675781 129.660156 C 256.398438 130.542969 259.511719 135.09375 258.628906 139.8125 C 257.746094 144.535156 253.195312 147.644531 248.46875 146.761719 C 246.824219 146.449219 245.234375 146.214844 243.730469 146.078125 C 242.367188 145.953125 240.75 145.886719 238.871094 145.886719 C 225.945312 145.886719 214.289062 150.65625 205.90625 158.363281 C 197.710938 165.894531 192.636719 176.265625 192.636719 187.679688 C 192.636719 191.320312 193.148438 194.828125 194.09375 198.152344 C 195.078125 201.601562 196.550781 204.898438 198.4375 207.960938 L 198.429688 207.964844 L 198.605469 208.265625 C 200.957031 212.460938 199.460938 217.769531 195.265625 220.117188 C 189.070312 223.601562 183.933594 228.484375 180.414062 234.257812 C 177.082031 239.710938 175.183594 246.023438 175.183594 252.75 C 175.183594 258.949219 176.785156 264.777344 179.617188 269.886719 L 179.601562 269.894531 L 179.617188 269.921875 C 181.078125 272.5625 182.875 275.03125 184.960938 277.292969 C 189.804688 270.085938 196.367188 263.980469 204.101562 259.484375 C 208.257812 257.078125 213.585938 258.496094 215.996094 262.652344 C 218.40625 266.804688 216.984375 272.128906 212.828125 274.539062 C 206.785156 278.050781 201.789062 282.90625 198.363281 288.617188 C 195.128906 294.007812 193.285156 300.234375 193.285156 306.867188 C 193.285156 315.710938 196.585938 323.867188 202.117188 330.328125 C 206.761719 335.757812 212.957031 340.035156 220.097656 342.601562 C 224.285156 337.15625 229.507812 332.4375 235.488281 328.699219 C 233.296875 322.140625 232.96875 314.878906 234.953125 307.722656 C 235.390625 306.152344 235.914062 304.648438 236.519531 303.230469 C 237.144531 301.75 237.859375 300.335938 238.644531 299.011719 C 241.09375 294.875 246.433594 293.5 250.574219 295.945312 C 254.710938 298.390625 256.085938 303.730469 253.640625 307.863281 C 253.222656 308.570312 252.851562 309.300781 252.535156 310.042969 C 252.210938 310.808594 251.933594 311.582031 251.722656 312.355469 C 250.351562 317.296875 251.109375 322.335938 253.449219 326.464844 C 253.667969 326.855469 253.902344 327.238281 254.152344 327.609375 L 254.171875 327.644531 C 256.566406 331.222656 260.199219 333.996094 264.664062 335.234375 C 266.402344 335.714844 268.140625 335.9375 269.820312 335.921875 C 271.535156 335.910156 273.265625 335.632812 274.949219 335.136719 C 279.558594 333.78125 284.398438 336.421875 285.753906 341.027344 C 287.105469 345.636719 284.464844 350.472656 279.855469 351.824219 C 276.71875 352.757812 273.386719 353.269531 269.957031 353.296875 C 266.664062 353.324219 263.320312 352.902344 260.027344 351.992188 C 254.117188 350.355469 248.960938 347.332031 244.8125 343.382812 C 239.953125 346.402344 235.8125 350.3125 232.6875 354.855469 C 228.671875 360.691406 226.339844 367.628906 226.339844 375.074219 C 226.339844 385.554688 231 395.078125 238.53125 402 C 246.25 409.09375 256.984375 413.488281 268.890625 413.488281 C 270.125 413.488281 271.207031 413.453125 272.136719 413.390625 C 272.847656 413.34375 273.515625 413.285156 274.140625 413.21875 C 275.257812 405.253906 278.128906 397.808594 282.367188 391.273438 C 286.683594 384.605469 292.433594 378.914062 299.179688 374.605469 C 298.5625 371.542969 298.238281 368.371094 298.238281 365.128906 C 298.238281 359.210938 299.339844 353.503906 301.347656 348.214844 C 303.421875 342.753906 306.476562 337.761719 310.289062 333.464844 C 313.46875 329.875 318.964844 329.539062 322.558594 332.71875 C 326.152344 335.894531 326.488281 341.386719 323.308594 344.980469 C 320.894531 347.703125 318.957031 350.871094 317.636719 354.34375 C 316.382812 357.65625 315.6875 361.296875 315.6875 365.128906 C 315.6875 373.503906 319.085938 381.09375 324.574219 386.578125 C 330.0625 392.0625 337.652344 395.460938 346.035156 395.460938 L 346.035156 395.492188 L 346.535156 395.488281 L 346.597656 395.484375 L 347.429688 395.457031 C 352.226562 395.308594 356.242188 399.074219 356.390625 403.871094 C 356.539062 408.667969 352.769531 412.679688 347.972656 412.828125 L 347.140625 412.855469 L 346.730469 412.859375 L 346.136719 412.867188 L 346.035156 412.867188 L 346.035156 412.902344 C 332.839844 412.902344 320.886719 407.550781 312.238281 398.90625 C 309.871094 396.539062 307.75 393.925781 305.917969 391.105469 C 302.386719 393.785156 299.34375 397.046875 296.953125 400.738281 C 293.230469 406.484375 291.070312 413.332031 291.070312 420.699219 C 291.070312 431.050781 295.371094 440.421875 302.3125 447.191406 C 309.324219 454.027344 319.046875 458.257812 329.804688 458.257812 C 340.5625 458.257812 350.28125 454.027344 357.292969 447.1875 C 364.234375 440.417969 368.53125 431.050781 368.53125 420.699219 Z M 242.867188 244.835938 C 241.644531 249.480469 236.882812 252.253906 232.234375 251.03125 C 227.589844 249.8125 224.8125 245.050781 226.035156 240.40625 C 228.605469 230.722656 235.773438 222.527344 244.789062 216.628906 C 246.964844 215.207031 249.257812 213.910156 251.636719 212.75 C 250.851562 212.074219 250.089844 211.375 249.351562 210.648438 C 242.421875 203.835938 237.597656 194.828125 236.019531 184.6875 C 235.289062 179.949219 238.539062 175.507812 243.277344 174.777344 C 248.019531 174.042969 252.460938 177.292969 253.195312 182.03125 C 254.175781 188.34375 257.199219 193.972656 261.546875 198.246094 C 265.910156 202.535156 271.617188 205.457031 277.929688 206.332031 L 277.929688 206.339844 C 282.039062 206.902344 285.277344 210.355469 285.429688 214.640625 C 285.597656 219.4375 281.84375 223.464844 277.042969 223.632812 C 269.644531 223.90625 261.21875 226.703125 254.332031 231.207031 C 248.644531 234.929688 244.234375 239.679688 242.867188 244.835938 Z M 242.867188 244.835938 " fill-opacity="1" fill-rule="evenodd"/></svg>