<svg xmlns="http://www.w3.org/2000/svg" xmlns:xlink="http://www.w3.org/1999/xlink" width="1000" zoomAndPan="magnify" viewBox="0 0 750 749.999995" height="1000" preserveAspectRatio="xMidYMid meet" version="1.0"><defs><clipPath id="af99b00209"><path d="M 136 193 L 569 193 L 569 664.5 L 136 664.5 Z M 136 193 " clip-rule="nonzero"/></clipPath></defs><path fill="#ffd400" d="M 523.285156 194.09375 C 528.074219 196.890625 534.21875 195.238281 536.976562 190.476562 L 569.023438 135.007812 C 571.785156 130.207031 570.167969 124.117188 565.367188 121.359375 C 560.582031 118.5625 554.476562 120.214844 551.714844 124.976562 L 519.667969 180.445312 C 516.90625 185.230469 518.523438 191.335938 523.285156 194.09375 Z M 523.285156 194.09375 " fill-opacity="1" fill-rule="nonzero"/><path fill="#ffd400" d="M 460.300781 168.03125 C 465.648438 169.484375 471.132812 166.300781 472.546875 160.957031 L 489.136719 99.074219 C 490.582031 93.730469 487.410156 88.25 482.0625 86.832031 C 476.714844 85.390625 471.230469 88.585938 469.789062 93.902344 L 453.199219 155.789062 C 451.78125 161.132812 454.953125 166.613281 460.300781 168.03125 Z M 460.300781 168.03125 " fill-opacity="1" fill-rule="nonzero"/><path fill="#00ccff" d="M 563.914062 256.238281 C 546.664062 256.238281 532.664062 270.195312 532.664062 287.433594 C 532.664062 304.710938 546.664062 318.667969 563.914062 318.667969 L 654.730469 318.667969 C 671.980469 318.667969 685.945312 304.710938 685.945312 287.433594 C 685.945312 270.09375 671.902344 256.238281 654.59375 256.238281 C 651.175781 256.238281 647.964844 256.996094 645.179688 258.375 C 642.246094 259.855469 639.695312 261.953125 637.695312 264.539062 C 634.347656 268.953125 628.070312 269.785156 623.691406 266.441406 C 619.277344 263.0625 618.445312 256.785156 621.789062 252.410156 C 625.617188 247.414062 630.582031 243.273438 636.3125 240.453125 C 640.554688 238.351562 645.21875 236.972656 650.078125 236.425781 C 643.488281 223.871094 630.320312 215.257812 615.035156 215.257812 C 592.613281 215.257812 574.683594 233.878906 575.476562 256.25 L 563.914062 256.25 Z M 563.914062 256.238281 " fill-opacity="1" fill-rule="nonzero"/><path fill="#ffd400" d="M 392.664062 159.128906 C 398.222656 159.128906 402.699219 154.644531 402.699219 149.136719 L 402.699219 85.078125 C 402.699219 79.5625 398.207031 75.050781 392.664062 75.050781 C 387.140625 75.050781 382.664062 79.5625 382.664062 85.078125 L 382.664062 149.125 C 382.664062 154.644531 387.140625 159.128906 392.664062 159.128906 Z M 392.664062 159.128906 " fill-opacity="1" fill-rule="nonzero"/><g clip-path="url(#af99b00209)"><path fill="#fbbd80" d="M 566.5 338.738281 L 563.914062 338.738281 C 535.597656 338.738281 512.628906 315.785156 512.628906 287.445312 C 512.628906 273.761719 518.011719 261.320312 526.769531 252.109375 C 453.125 168.6875 302.714844 178.71875 226.722656 256 C 233.484375 264.652344 237.515625 275.578125 237.515625 287.445312 C 237.515625 315.785156 214.546875 338.738281 186.195312 338.738281 L 183.222656 338.738281 C 182.386719 343.425781 181.703125 348.1875 181.257812 353.082031 C 178.359375 384.902344 190.296875 400.972656 144.109375 460.195312 C 121.417969 496.945312 155.625 497.183594 171.667969 497.628906 C 155.140625 511.863281 170.5 524.351562 179.8125 527.074219 C 161.457031 534.519531 166.804688 551.3125 183.195312 556.890625 C 156.296875 620.042969 203.828125 622.316406 270.878906 608.667969 L 281.089844 650.617188 C 283.09375 658.917969 290.304688 664.574219 298.824219 664.574219 L 488.875 664.574219 C 495.15625 664.574219 500.566406 661.679688 504.046875 656.472656 C 507.566406 651.226562 508.152344 645.125 505.738281 639.34375 C 452.800781 511.277344 532.8125 493.628906 560.269531 411.785156 C 568.539062 387.101562 570.292969 362.863281 566.5 338.738281 Z M 487.621094 397.539062 C 487.246094 403.816406 485.308594 409.707031 482.136719 414.816406 C 479.414062 409.882812 476.339844 405.136719 472.960938 400.574219 C 469.675781 396.125 463.410156 395.191406 458.957031 398.472656 C 454.503906 401.777344 453.570312 408.019531 456.855469 412.46875 C 460.746094 417.714844 464.09375 423.21875 466.925781 429.011719 C 474.476562 446.597656 477.585938 466.210938 475.410156 487.6875 C 475.136719 490.234375 473.035156 492.136719 470.472656 492.136719 L 459.429688 492.136719 C 456.878906 492.136719 454.742188 490.210938 454.492188 487.648438 C 451.667969 458.515625 433.277344 448.351562 419.136719 437.152344 C 424.273438 432.914062 428.625 428.054688 431.972656 422.671875 C 434.90625 417.988281 433.449219 411.808594 428.761719 408.886719 C 424.074219 405.957031 417.894531 407.410156 414.972656 412.09375 C 410.929688 418.546875 404.625 424.027344 396.789062 427.917969 C 388.992188 431.78125 379.679688 434.019531 369.644531 434.019531 C 355.367188 434.019531 342.570312 429.46875 333.394531 422.125 C 324.839844 415.265625 319.566406 405.992188 319.566406 395.851562 C 319.566406 390.292969 315.050781 385.820312 309.53125 385.820312 C 303.972656 385.820312 299.496094 390.308594 299.496094 395.851562 C 299.496094 400.785156 300.214844 405.53125 301.597656 410.117188 L 301.285156 410.117188 C 270.445312 410.117188 245.472656 386.640625 245.472656 357.683594 C 245.472656 355.753906 245.574219 353.816406 245.785156 351.925781 C 251.230469 357.273438 257.648438 361.722656 264.785156 364.988281 C 269.824219 367.265625 275.753906 365.0625 278.03125 360.054688 C 280.34375 355.023438 278.105469 349.09375 273.09375 346.820312 C 265.332031 343.265625 258.816406 337.757812 254.289062 330.996094 C 249.976562 324.519531 247.5 316.902344 247.5 308.722656 C 247.5 297.101562 252.539062 286.589844 260.671875 278.945312 C 268.976562 271.152344 280.503906 266.328125 293.300781 266.328125 C 298.398438 266.328125 303.238281 267.050781 307.652344 268.394531 C 312.242188 269.808594 316.582031 271.910156 320.449219 274.558594 C 325.039062 277.664062 331.242188 276.484375 334.390625 271.933594 C 337.496094 267.347656 336.316406 261.148438 331.765625 258.003906 C 326.867188 254.695312 321.457031 251.972656 315.625 249.972656 C 323.171875 242.253906 334.003906 237.421875 346.039062 237.421875 C 359.460938 237.421875 371.398438 243.449219 378.945312 252.792969 C 386.320312 246.171875 396.367188 242.105469 407.398438 242.105469 C 424.472656 242.105469 439.097656 251.863281 445.375 265.71875 C 472.5625 267.785156 494.25 288.128906 496.460938 313.632812 C 496.050781 313.460938 495.605469 313.25 495.15625 313.085938 C 487.671875 310.015625 479.289062 308.601562 470.597656 309.296875 C 465.074219 309.742188 460.933594 314.566406 461.382812 320.085938 C 461.828125 325.640625 466.691406 329.742188 472.214844 329.292969 C 477.660156 328.847656 482.90625 329.703125 487.558594 331.644531 C 489.910156 332.613281 492.109375 333.816406 494.074219 335.261719 C 502.554688 342.355469 507.867188 352.671875 507.867188 364.183594 C 507.902344 378.375 499.757812 390.816406 487.621094 397.539062 Z M 487.621094 397.539062 " fill-opacity="1" fill-rule="nonzero"/></g><path fill="#70da40" d="M 401.527344 291.398438 C 376.210938 276.78125 343.851562 285.433594 329.242188 310.738281 C 314.628906 336.042969 323.308594 368.382812 348.628906 382.988281 C 373.910156 397.601562 406.304688 388.914062 420.914062 363.648438 C 435.503906 338.355469 426.847656 305.988281 401.527344 291.398438 Z M 406.9375 328.773438 L 375.898438 359.792969 C 372.007812 363.722656 365.652344 363.722656 361.722656 359.792969 L 343.167969 341.25 C 339.277344 337.359375 339.277344 331.007812 343.167969 327.082031 C 347.097656 323.191406 353.453125 323.191406 357.34375 327.082031 L 368.835938 338.527344 L 392.773438 314.601562 C 396.703125 310.675781 403.058594 310.675781 406.949219 314.601562 C 410.867188 318.492188 410.867188 324.84375 406.9375 328.773438 Z M 406.9375 328.773438 " fill-opacity="1" fill-rule="nonzero"/><path fill="#ffd400" d="M 312.777344 160.957031 C 314.21875 166.300781 319.714844 169.472656 325.050781 168.03125 C 330.398438 166.613281 333.566406 161.132812 332.125 155.789062 L 315.535156 93.902344 C 314.117188 88.597656 308.632812 85.390625 303.289062 86.832031 C 297.941406 88.25 294.769531 93.730469 296.1875 99.074219 Z M 312.777344 160.957031 " fill-opacity="1" fill-rule="nonzero"/><path fill="#00ccff" d="M 95.414062 318.667969 L 186.230469 318.667969 C 203.480469 318.667969 217.445312 304.710938 217.445312 287.433594 C 217.445312 270.09375 203.402344 256.238281 186.09375 256.238281 C 182.675781 256.238281 179.464844 256.996094 176.679688 258.375 C 173.746094 259.855469 171.195312 261.953125 169.195312 264.539062 C 165.847656 268.953125 159.570312 269.785156 155.191406 266.441406 C 150.777344 263.0625 149.945312 256.785156 153.289062 252.410156 C 157.117188 247.414062 162.082031 243.273438 167.8125 240.453125 C 172.054688 238.351562 176.71875 236.972656 181.578125 236.425781 C 174.988281 223.871094 161.820312 215.257812 146.535156 215.257812 C 124.113281 215.257812 106.183594 233.878906 106.976562 256.25 L 95.425781 256.25 C 78.164062 256.238281 64.164062 270.207031 64.164062 287.433594 C 64.164062 304.710938 78.164062 318.667969 95.414062 318.667969 Z M 95.414062 318.667969 " fill-opacity="1" fill-rule="nonzero"/><path fill="#ffd400" d="M 248.382812 190.464844 C 251.144531 195.222656 257.289062 196.878906 262.039062 194.082031 C 266.839844 191.320312 268.457031 185.21875 265.695312 180.433594 L 233.660156 124.964844 C 230.898438 120.203125 224.757812 118.550781 220.007812 121.347656 C 215.21875 124.105469 213.589844 130.207031 216.351562 134.992188 Z M 248.382812 190.464844 " fill-opacity="1" fill-rule="nonzero"/></svg>