<svg xmlns="http://www.w3.org/2000/svg" xmlns:xlink="http://www.w3.org/1999/xlink" width="1000" zoomAndPan="magnify" viewBox="0 0 750 749.999995" height="1000" preserveAspectRatio="xMidYMid meet" version="1.0"><path fill="#2a7abd" d="M 687.789062 413.875 L 513.667969 239.753906 C 498.652344 224.738281 480.261719 217.125 459.023438 217.125 L 290.976562 217.125 C 269.738281 217.125 251.347656 224.738281 236.332031 239.753906 L 62.210938 413.875 C 47.277344 428.808594 47.277344 453.109375 62.210938 468.0625 C 77.144531 482.996094 101.445312 482.996094 116.382812 468.0625 L 234.597656 349.863281 C 237.394531 347.046875 241.621094 346.210938 245.304688 347.734375 C 248.972656 349.257812 251.363281 352.84375 251.363281 356.808594 L 251.363281 545.78125 L 375 591.125 L 498.636719 545.78125 L 498.636719 356.808594 C 498.636719 352.828125 501.027344 349.257812 504.695312 347.734375 C 508.378906 346.210938 512.605469 347.046875 515.402344 349.863281 L 633.617188 468.078125 C 648.554688 483.011719 672.855469 483.011719 687.789062 468.078125 C 702.722656 453.144531 702.722656 428.84375 687.789062 413.910156 Z M 380.632812 316.246094 C 397.105469 327.789062 408.503906 343.347656 413.644531 360.671875 C 425.765625 356.445312 439.324219 355.398438 452.949219 357.789062 C 457.007812 358.511719 460.203125 361.6875 460.921875 365.765625 C 465.292969 390.589844 458.449219 414.1875 442.140625 430.480469 C 429.070312 443.546875 411.304688 450.539062 391.980469 450.539062 C 387.199219 450.539062 382.335938 450.113281 377.421875 449.246094 C 377.195312 449.214844 376.980469 449.132812 376.753906 449.082031 C 376.179688 449.179688 375.589844 449.261719 375 449.261719 C 374.410156 449.261719 373.820312 449.199219 373.246094 449.082031 C 373.019531 449.132812 372.804688 449.214844 372.578125 449.246094 C 367.664062 450.113281 362.800781 450.539062 358.019531 450.539062 C 338.695312 450.539062 320.929688 443.546875 307.859375 430.480469 C 291.550781 414.1875 284.707031 390.589844 289.078125 365.765625 C 289.796875 361.6875 292.992188 358.511719 297.050781 357.789062 C 310.691406 355.382812 324.234375 356.429688 336.355469 360.671875 C 341.496094 343.347656 352.894531 327.773438 369.367188 316.246094 C 372.738281 313.871094 377.257812 313.871094 380.632812 316.246094 Z M 380.632812 316.246094 " fill-opacity="1" fill-rule="evenodd"/><path fill="#2a7abd" d="M 375 157.386719 C 418.394531 157.386719 453.683594 122.097656 453.683594 78.699219 C 453.683594 35.304688 418.394531 0.015625 375 0.015625 C 331.605469 0.015625 296.316406 35.304688 296.316406 78.699219 C 296.316406 122.097656 331.605469 157.386719 375 157.386719 Z M 375 157.386719 " fill-opacity="1" fill-rule="evenodd"/><path fill="#2a7abd" d="M 592.679688 532.1875 L 201.535156 675.621094 C 182.652344 682.550781 172.433594 702.378906 177.738281 721.769531 C 183.046875 741.140625 201.960938 752.996094 221.707031 749.34375 L 631.0625 673.574219 C 669.792969 666.402344 695.585938 629.050781 688.574219 590.289062 L 687.921875 586.734375 C 683.972656 564.921875 672.234375 548.300781 653.007812 537.28125 C 641.644531 530.765625 629.886719 527.503906 617.882812 527.503906 C 609.597656 527.503906 601.179688 529.0625 592.679688 532.171875 Z M 592.679688 532.1875 " fill-opacity="1" fill-rule="evenodd"/><path fill="#2a7abd" d="M 194.769531 657.183594 L 346.457031 601.539062 L 157.320312 532.1875 C 136.523438 524.558594 116.21875 526.277344 96.992188 537.296875 C 77.765625 548.300781 66.027344 564.941406 62.078125 586.753906 L 61.425781 590.304688 C 54.414062 629.066406 80.222656 666.417969 118.9375 673.589844 L 164.707031 682.058594 C 171.289062 670.957031 181.636719 662.015625 194.769531 657.199219 Z M 194.769531 657.183594 " fill-opacity="1" fill-rule="evenodd"/><path fill="#2a7abd" d="M 572.929688 704.3125 L 428.972656 730.972656 L 528.292969 749.34375 C 548.058594 752.996094 566.953125 741.140625 572.257812 721.769531 C 573.847656 715.972656 574.042969 710.042969 572.929688 704.3125 Z M 572.929688 704.3125 " fill-opacity="1" fill-rule="evenodd"/><path fill="#d8e0d4" d="M 375 427.042969 C 389.148438 414.988281 397.125 398.84375 397.125 381.878906 C 397.125 364.914062 389.148438 348.765625 375 336.699219 C 360.851562 348.765625 352.875 364.894531 352.875 381.878906 C 352.875 398.859375 360.851562 414.988281 375 427.042969 Z M 375 427.042969 " fill-opacity="1" fill-rule="evenodd"/><path fill="#d8e0d4" d="M 350.929688 430.449219 C 339.496094 416.398438 333.226562 399.546875 333.226562 381.878906 C 333.226562 381.4375 333.257812 381.027344 333.257812 380.585938 C 325.511719 377.226562 316.71875 375.738281 307.582031 376.308594 C 306.566406 392.03125 311.5625 406.425781 321.746094 416.609375 C 329.476562 424.324219 339.628906 429.039062 350.929688 430.449219 Z M 350.929688 430.449219 " fill-opacity="1" fill-rule="evenodd"/><path fill="#d8e0d4" d="M 416.773438 381.878906 C 416.773438 399.546875 410.503906 416.398438 399.070312 430.449219 C 410.371094 429.039062 420.523438 424.324219 428.253906 416.59375 C 438.4375 406.425781 443.433594 392.015625 442.417969 376.292969 C 433.28125 375.71875 424.488281 377.210938 416.742188 380.566406 C 416.742188 381.011719 416.773438 381.417969 416.773438 381.863281 Z M 416.773438 381.878906 " fill-opacity="1" fill-rule="evenodd"/></svg>