<svg xmlns="http://www.w3.org/2000/svg" xmlns:xlink="http://www.w3.org/1999/xlink" width="1000" zoomAndPan="magnify" viewBox="0 0 750 749.999995" height="1000" preserveAspectRatio="xMidYMid meet" version="1.0"><path fill="#dae4fe" d="M 662.847656 345.148438 C 662.847656 350.570312 662.714844 355.988281 662.449219 361.402344 C 662.183594 366.820312 661.785156 372.222656 661.25 377.621094 C 660.71875 383.015625 660.054688 388.394531 659.261719 393.757812 C 658.464844 399.121094 657.539062 404.460938 656.480469 409.777344 C 655.421875 415.09375 654.234375 420.382812 652.917969 425.644531 C 651.597656 430.902344 650.152344 436.125 648.578125 441.3125 C 647.003906 446.5 645.304688 451.648438 643.476562 456.753906 C 641.648438 461.859375 639.699219 466.914062 637.625 471.921875 C 635.546875 476.933594 633.351562 481.886719 631.03125 486.789062 C 628.714844 491.691406 626.277344 496.53125 623.71875 501.3125 C 621.164062 506.09375 618.492188 510.808594 615.703125 515.460938 C 612.914062 520.109375 610.011719 524.6875 607 529.195312 C 603.988281 533.703125 600.867188 538.136719 597.636719 542.492188 C 594.40625 546.847656 591.070312 551.117188 587.628906 555.308594 C 584.1875 559.5 580.648438 563.605469 577.003906 567.621094 C 573.363281 571.640625 569.625 575.5625 565.789062 579.398438 C 561.957031 583.230469 558.027344 586.96875 554.011719 590.609375 C 549.992188 594.25 545.886719 597.792969 541.695312 601.230469 C 537.503906 604.671875 533.226562 608.003906 528.871094 611.234375 C 524.515625 614.464844 520.082031 617.585938 515.574219 620.597656 C 511.066406 623.609375 506.484375 626.507812 501.832031 629.296875 C 497.183594 632.082031 492.464844 634.753906 487.683594 637.308594 C 482.898438 639.867188 478.054688 642.304688 473.152344 644.621094 C 468.25 646.9375 463.292969 649.136719 458.285156 651.210938 C 453.273438 653.285156 448.214844 655.234375 443.109375 657.0625 C 438.003906 658.886719 432.855469 660.589844 427.664062 662.164062 C 422.476562 663.738281 417.25 665.183594 411.988281 666.5 C 406.730469 667.816406 401.441406 669.003906 396.121094 670.0625 C 390.800781 671.121094 385.460938 672.046875 380.09375 672.839844 C 374.730469 673.636719 369.351562 674.300781 363.953125 674.832031 C 358.554688 675.363281 353.148438 675.761719 347.734375 676.027344 C 342.316406 676.292969 336.894531 676.425781 331.472656 676.425781 C 326.050781 676.425781 320.628906 676.292969 315.214844 676.027344 C 309.796875 675.761719 304.390625 675.363281 298.992188 674.832031 C 293.59375 674.300781 288.214844 673.636719 282.851562 672.839844 C 277.484375 672.046875 272.144531 671.121094 266.824219 670.0625 C 261.503906 669.003906 256.214844 667.816406 250.957031 666.5 C 245.695312 665.183594 240.46875 663.734375 235.28125 662.164062 C 230.089844 660.589844 224.941406 658.886719 219.835938 657.0625 C 214.730469 655.234375 209.671875 653.285156 204.660156 651.210938 C 199.652344 649.136719 194.695312 646.9375 189.792969 644.621094 C 184.890625 642.304688 180.046875 639.867188 175.265625 637.308594 C 170.480469 634.753906 165.761719 632.082031 161.113281 629.296875 C 156.460938 626.507812 151.878906 623.609375 147.371094 620.597656 C 142.863281 617.585938 138.429688 614.464844 134.074219 611.234375 C 129.71875 608.003906 125.441406 604.671875 121.25 601.230469 C 117.058594 597.792969 112.953125 594.25 108.933594 590.609375 C 104.917969 586.96875 100.988281 583.230469 97.15625 579.398438 C 93.320312 575.5625 89.582031 571.640625 85.941406 567.621094 C 82.296875 563.605469 78.757812 559.5 75.316406 555.308594 C 71.875 551.117188 68.539062 546.847656 65.308594 542.492188 C 62.078125 538.136719 58.957031 533.703125 55.945312 529.195312 C 52.933594 524.6875 50.03125 520.109375 47.242188 515.460938 C 44.453125 510.808594 41.78125 506.09375 39.226562 501.3125 C 36.667969 496.53125 34.230469 491.691406 31.914062 486.789062 C 29.59375 481.886719 27.398438 476.933594 25.324219 471.921875 C 23.246094 466.914062 21.296875 461.859375 19.46875 456.753906 C 17.640625 451.648438 15.941406 446.5 14.367188 441.3125 C 12.792969 436.125 11.347656 430.902344 10.027344 425.644531 C 8.710938 420.382812 7.523438 415.09375 6.464844 409.777344 C 5.40625 404.460938 4.480469 399.121094 3.683594 393.757812 C 2.890625 388.394531 2.226562 383.015625 1.695312 377.621094 C 1.160156 372.222656 0.761719 366.820312 0.496094 361.402344 C 0.230469 355.988281 0.0976562 350.570312 0.0976562 345.148438 C 0.0976562 339.726562 0.230469 334.308594 0.496094 328.894531 C 0.761719 323.480469 1.160156 318.074219 1.695312 312.679688 C 2.226562 307.28125 2.890625 301.902344 3.683594 296.539062 C 4.480469 291.175781 5.40625 285.835938 6.464844 280.519531 C 7.523438 275.203125 8.710938 269.914062 10.027344 264.65625 C 11.347656 259.394531 12.792969 254.171875 14.367188 248.984375 C 15.941406 243.796875 17.640625 238.648438 19.46875 233.542969 C 21.296875 228.441406 23.246094 223.382812 25.324219 218.375 C 27.398438 213.363281 29.59375 208.410156 31.914062 203.507812 C 34.230469 198.609375 36.667969 193.765625 39.226562 188.984375 C 41.78125 184.203125 44.453125 179.488281 47.242188 174.835938 C 50.03125 170.1875 52.933594 165.609375 55.945312 161.101562 C 58.957031 156.59375 62.078125 152.160156 65.308594 147.804688 C 68.539062 143.453125 71.875 139.179688 75.316406 134.988281 C 78.757812 130.796875 82.296875 126.691406 85.941406 122.675781 C 89.582031 118.660156 93.320312 114.734375 97.15625 110.898438 C 100.988281 107.066406 104.917969 103.328125 108.933594 99.6875 C 112.953125 96.046875 117.058594 92.507812 121.25 89.066406 C 125.441406 85.628906 129.71875 82.292969 134.074219 79.0625 C 138.429688 75.832031 142.863281 72.710938 147.371094 69.699219 C 151.878906 66.6875 156.460938 63.789062 161.113281 61 C 165.761719 58.214844 170.480469 55.542969 175.265625 52.988281 C 180.046875 50.429688 184.890625 47.996094 189.792969 45.675781 C 194.695312 43.359375 199.652344 41.160156 204.660156 39.085938 C 209.671875 37.011719 214.730469 35.0625 219.835938 33.234375 C 224.941406 31.410156 230.089844 29.707031 235.28125 28.136719 C 240.46875 26.5625 245.695312 25.117188 250.957031 23.796875 C 256.214844 22.480469 261.503906 21.292969 266.824219 20.234375 C 272.144531 19.179688 277.484375 18.25 282.851562 17.457031 C 288.214844 16.660156 293.59375 15.996094 298.992188 15.464844 C 304.390625 14.933594 309.796875 14.535156 315.214844 14.269531 C 320.628906 14.003906 326.050781 13.871094 331.472656 13.871094 C 336.894531 13.871094 342.316406 14.003906 347.734375 14.269531 C 353.148438 14.535156 358.554688 14.933594 363.953125 15.464844 C 369.351562 15.996094 374.730469 16.660156 380.09375 17.457031 C 385.460938 18.25 390.800781 19.179688 396.121094 20.234375 C 401.441406 21.292969 406.730469 22.480469 411.988281 23.796875 C 417.25 25.117188 422.476562 26.5625 427.664062 28.136719 C 432.855469 29.707031 438.003906 31.410156 443.109375 33.234375 C 448.214844 35.0625 453.273438 37.011719 458.285156 39.085938 C 463.292969 41.160156 468.25 43.359375 473.152344 45.675781 C 478.054688 47.996094 482.898438 50.429688 487.683594 52.988281 C 492.464844 55.542969 497.183594 58.214844 501.832031 61 C 506.484375 63.789062 511.066406 66.6875 515.574219 69.699219 C 520.082031 72.710938 524.515625 75.832031 528.871094 79.0625 C 533.226562 82.292969 537.503906 85.628906 541.695312 89.066406 C 545.886719 92.507812 549.992188 96.046875 554.011719 99.6875 C 558.027344 103.328125 561.957031 107.066406 565.789062 110.898438 C 569.625 114.734375 573.363281 118.660156 577.003906 122.675781 C 580.648438 126.691406 584.1875 130.796875 587.628906 134.988281 C 591.070312 139.179688 594.40625 143.453125 597.636719 147.804688 C 600.867188 152.160156 603.988281 156.59375 607 161.101562 C 610.011719 165.609375 612.914062 170.1875 615.703125 174.835938 C 618.492188 179.488281 621.164062 184.203125 623.71875 188.984375 C 626.277344 193.765625 628.714844 198.609375 631.03125 203.507812 C 633.351562 208.410156 635.546875 213.363281 637.625 218.375 C 639.699219 223.382812 641.648438 228.441406 643.476562 233.542969 C 645.304688 238.648438 647.003906 243.796875 648.578125 248.984375 C 650.152344 254.171875 651.597656 259.394531 652.917969 264.65625 C 654.234375 269.914062 655.421875 275.203125 656.480469 280.519531 C 657.539062 285.835938 658.464844 291.175781 659.261719 296.539062 C 660.054688 301.902344 660.71875 307.28125 661.25 312.679688 C 661.785156 318.074219 662.183594 323.480469 662.449219 328.894531 C 662.714844 334.308594 662.847656 339.726562 662.847656 345.148438 Z M 662.847656 345.148438 " fill-opacity="1" fill-rule="nonzero"/><path stroke-linecap="butt" transform="matrix(2.010769, 0, 0, 2.010185, -133.819253, -158.201516)" fill-opacity="1" fill="#ffffff" fill-rule="nonzero" stroke-linejoin="miter" d="M 156.100341 216.900506 L 75.100942 216.900506 C 71.299148 216.900506 68.299674 213.90016 68.299674 210.099204 L 68.299674 129.099578 C 68.299674 125.300565 71.299148 122.300219 75.100942 122.300219 L 156.100341 122.300219 C 159.900193 122.300219 162.899667 125.300565 162.899667 129.099578 L 162.899667 210.099204 C 162.899667 213.90016 159.799174 216.900506 156.100341 216.900506 Z M 156.100341 216.900506 " stroke="#263156" stroke-width="1" stroke-opacity="1" stroke-miterlimit="10"/><path stroke-linecap="butt" transform="matrix(2.010769, 0, 0, 2.010185, -133.819253, -158.201516)" fill="none" stroke-linejoin="miter" d="M 123.399468 156.199854 C 123.399468 156.199854 129.400359 162.999213 138.099611 162.400698 " stroke="#e25469" stroke-width="1.228" stroke-opacity="1" stroke-miterlimit="10"/><path stroke-linecap="butt" transform="matrix(2.010769, 0, 0, 2.010185, -133.819253, -158.201516)" fill="none" stroke-linejoin="miter" d="M 107.799872 156.199854 C 107.799872 156.199854 101.800924 162.999213 93.099729 162.400698 " stroke="#e25469" stroke-width="1.228" stroke-opacity="1" stroke-miterlimit="10"/><path fill="#e25469" d="M 176.039062 134.078125 C 182.476562 142.523438 167.796875 165.035156 167.796875 165.035156 C 166.789062 155.1875 154.121094 154.582031 154.121094 154.582031 C 154.121094 154.582031 170.609375 141.71875 166.589844 136.089844 C 162.566406 130.261719 152.917969 135.886719 146.683594 140.511719 C 140.449219 145.136719 139.445312 145.9375 134.820312 147.144531 C 130.195312 148.351562 124.765625 145.335938 120.34375 155.589844 C 115.71875 165.839844 115.113281 172.273438 116.722656 179.109375 C 118.332031 185.941406 118.53125 191.972656 112.5 196.195312 C 112.5 196.195312 107.472656 235.59375 106.066406 237 C 105.664062 237.402344 104.859375 237.605469 104.054688 237.804688 C 104.859375 232.78125 110.289062 202.222656 108.679688 199.410156 C 106.871094 196.394531 105.261719 202.023438 102.042969 200.617188 C 98.828125 199.007812 101.84375 197.199219 102.847656 188.957031 C 103.855469 180.714844 100.835938 179.910156 100.835938 173.882812 C 100.835938 167.851562 101.039062 164.433594 103.855469 155.1875 C 106.667969 145.9375 123.761719 143.125 123.761719 143.125 C 114.308594 138.101562 98.828125 137.699219 98.625 137.699219 L 98.222656 137.699219 C 98.023438 137.699219 82.539062 138.101562 73.089844 143.125 C 73.089844 143.125 90.179688 145.9375 92.996094 155.1875 C 95.8125 164.433594 96.011719 167.851562 96.011719 173.882812 C 96.011719 179.910156 92.996094 180.714844 94 188.957031 C 95.007812 197.199219 98.023438 199.007812 94.804688 200.617188 C 91.589844 202.023438 89.980469 196.597656 88.167969 199.410156 C 86.5625 202.222656 91.988281 232.78125 92.792969 237.804688 C 91.988281 237.605469 91.1875 237.402344 90.785156 237 C 89.375 235.59375 84.347656 196.195312 84.347656 196.195312 C 78.316406 191.972656 78.519531 185.941406 80.125 179.109375 C 81.734375 172.273438 81.132812 165.640625 76.507812 155.589844 C 71.882812 145.335938 66.65625 148.351562 62.03125 147.144531 C 57.40625 145.9375 56.199219 145.136719 50.167969 140.511719 C 44.132812 135.886719 34.480469 130.261719 30.257812 136.089844 C 26.238281 141.917969 42.726562 154.582031 42.726562 154.582031 C 42.726562 154.582031 30.257812 155.1875 29.054688 165.035156 C 29.054688 165.035156 14.375 142.320312 20.808594 134.078125 C 27.242188 125.636719 38.703125 124.230469 52.175781 134.078125 C 65.648438 143.929688 69.269531 141.316406 78.519531 133.878906 C 87.765625 126.640625 98.222656 127.445312 98.222656 127.445312 C 98.222656 127.445312 108.679688 126.640625 117.929688 133.878906 C 127.179688 141.113281 130.796875 143.726562 144.269531 134.078125 C 157.945312 124.230469 169.605469 125.636719 176.039062 134.078125 Z M 176.039062 134.078125 " fill-opacity="1" fill-rule="nonzero"/><path fill="#dae4fe" d="M 154.121094 154.582031 C 154.121094 154.582031 166.589844 155.1875 167.796875 165.035156 C 167.796875 165.035156 156.335938 186.546875 146.28125 175.890625 C 136.027344 165.238281 154.121094 154.582031 154.121094 154.582031 Z M 154.121094 154.582031 " fill-opacity="1" fill-rule="nonzero"/><path fill="#e25469" d="M 123.960938 143.527344 C 123.960938 143.527344 106.871094 146.339844 104.054688 155.589844 C 101.238281 164.835938 101.039062 168.253906 101.039062 174.28125 C 101.039062 180.3125 104.054688 181.117188 103.050781 189.359375 C 102.042969 197.601562 99.027344 199.410156 102.246094 201.019531 C 105.460938 202.425781 107.070312 197 108.878906 199.8125 C 110.488281 202.625 105.058594 233.179688 104.253906 238.207031 C 102.042969 238.609375 99.027344 238.609375 99.027344 238.609375 L 98.425781 238.609375 C 98.425781 238.609375 95.410156 238.808594 93.195312 238.207031 C 92.390625 233.179688 86.964844 202.625 88.570312 199.8125 C 90.382812 196.796875 91.988281 202.425781 95.207031 201.019531 C 98.425781 199.410156 95.410156 197.601562 94.402344 189.359375 C 93.398438 181.117188 96.414062 180.3125 96.414062 174.28125 C 96.414062 168.253906 96.210938 164.835938 93.398438 155.589844 C 90.582031 146.339844 73.492188 143.527344 73.492188 143.527344 C 82.941406 138.5 98.425781 138.101562 98.625 138.101562 L 99.027344 138.101562 C 99.027344 138.101562 114.511719 138.300781 123.960938 143.527344 Z M 123.960938 143.527344 " fill-opacity="1" fill-rule="nonzero"/><path fill="#263156" d="M 123.960938 143.527344 C 123.960938 143.527344 106.871094 146.339844 104.054688 155.589844 C 101.238281 164.835938 101.039062 168.253906 101.039062 174.28125 C 101.039062 180.3125 104.054688 181.117188 103.050781 189.359375 C 102.042969 197.601562 99.027344 199.410156 102.246094 201.019531 C 105.460938 202.425781 107.070312 197 108.878906 199.8125 C 110.488281 202.625 105.058594 233.179688 104.253906 238.207031 C 102.042969 238.609375 99.027344 238.609375 99.027344 238.609375 L 98.425781 238.609375 C 98.425781 238.609375 95.410156 238.808594 93.195312 238.207031 C 92.390625 233.179688 86.964844 202.625 88.570312 199.8125 C 90.382812 196.796875 91.988281 202.425781 95.207031 201.019531 C 98.425781 199.410156 95.410156 197.601562 94.402344 189.359375 C 93.398438 181.117188 96.414062 180.3125 96.414062 174.28125 C 96.414062 168.253906 96.210938 164.835938 93.398438 155.589844 C 90.582031 146.339844 73.492188 143.527344 73.492188 143.527344 C 82.941406 138.5 98.425781 138.101562 98.625 138.101562 L 99.027344 138.101562 C 99.027344 138.101562 114.511719 138.300781 123.960938 143.527344 Z M 123.960938 143.527344 " fill-opacity="0.2" fill-rule="nonzero"/><path fill="#dae4fe" d="M 43.128906 154.582031 C 43.128906 154.582031 61.226562 165.035156 50.96875 175.890625 C 41.117188 186.546875 29.457031 165.035156 29.457031 165.035156 C 30.460938 155.386719 43.128906 154.582031 43.128906 154.582031 Z M 43.128906 154.582031 " fill-opacity="1" fill-rule="nonzero"/><path stroke-linecap="butt" transform="matrix(2.010769, 0, 0, 2.010185, -133.819253, -158.201516)" fill-opacity="1" fill="#ffffff" fill-rule="nonzero" stroke-linejoin="miter" d="M 193.700613 84.700676 L 414.999246 84.700676 L 414.999246 305.99951 L 193.700613 305.99951 Z M 193.700613 84.700676 " stroke="#263156" stroke-width="1" stroke-opacity="1" stroke-miterlimit="10"/><path fill="#e25469" d="M 255.667969 12.0625 L 700.648438 12.0625 L 700.648438 119.003906 L 255.667969 119.003906 Z M 255.667969 12.0625 " fill-opacity="1" fill-rule="nonzero"/><path fill="#dae4fe" d="M 294.273438 168.050781 L 365.65625 168.050781 L 365.65625 214.285156 L 294.273438 214.285156 Z M 294.273438 168.050781 " fill-opacity="1" fill-rule="nonzero"/><path fill="#dae4fe" d="M 394.007812 168.050781 L 465.390625 168.050781 L 465.390625 214.285156 L 394.007812 214.285156 Z M 394.007812 168.050781 " fill-opacity="1" fill-rule="nonzero"/><path fill="#dae4fe" d="M 493.742188 168.050781 L 565.125 168.050781 L 565.125 214.285156 L 493.742188 214.285156 Z M 493.742188 168.050781 " fill-opacity="1" fill-rule="nonzero"/><path fill="#dae4fe" d="M 593.675781 168.050781 L 665.058594 168.050781 L 665.058594 214.285156 L 593.675781 214.285156 Z M 593.675781 168.050781 " fill-opacity="1" fill-rule="nonzero"/><path fill="#dae4fe" d="M 294.273438 254.085938 L 365.65625 254.085938 L 365.65625 300.320312 L 294.273438 300.320312 Z M 294.273438 254.085938 " fill-opacity="1" fill-rule="nonzero"/><path fill="#dae4fe" d="M 394.007812 254.085938 L 465.390625 254.085938 L 465.390625 300.320312 L 394.007812 300.320312 Z M 394.007812 254.085938 " fill-opacity="1" fill-rule="nonzero"/><path fill="#dae4fe" d="M 493.742188 254.085938 L 565.125 254.085938 L 565.125 300.320312 L 493.742188 300.320312 Z M 493.742188 254.085938 " fill-opacity="1" fill-rule="nonzero"/><path fill="#dae4fe" d="M 593.675781 254.085938 L 665.058594 254.085938 L 665.058594 300.320312 L 593.675781 300.320312 Z M 593.675781 254.085938 " fill-opacity="1" fill-rule="nonzero"/><path fill="#dae4fe" d="M 294.273438 340.125 L 365.65625 340.125 L 365.65625 386.359375 L 294.273438 386.359375 Z M 294.273438 340.125 " fill-opacity="1" fill-rule="nonzero"/><path fill="#dae4fe" d="M 394.007812 340.125 L 465.390625 340.125 L 465.390625 386.359375 L 394.007812 386.359375 Z M 394.007812 340.125 " fill-opacity="1" fill-rule="nonzero"/><path fill="#dae4fe" d="M 493.742188 340.125 L 565.125 340.125 L 565.125 386.359375 L 493.742188 386.359375 Z M 493.742188 340.125 " fill-opacity="1" fill-rule="nonzero"/><path fill="#dae4fe" d="M 593.675781 340.125 L 665.058594 340.125 L 665.058594 386.359375 L 593.675781 386.359375 Z M 593.675781 340.125 " fill-opacity="1" fill-rule="nonzero"/><path fill="#263156" d="M 334.488281 68.347656 C 334.488281 69.269531 334.398438 70.183594 334.21875 71.089844 C 334.039062 71.996094 333.769531 72.878906 333.417969 73.730469 C 333.0625 74.585938 332.628906 75.394531 332.117188 76.164062 C 331.601562 76.933594 331.019531 77.644531 330.367188 78.296875 C 329.710938 78.949219 329 79.53125 328.234375 80.046875 C 327.464844 80.558594 326.652344 80.992188 325.800781 81.347656 C 324.945312 81.699219 324.066406 81.96875 323.160156 82.148438 C 322.253906 82.328125 321.335938 82.417969 320.414062 82.417969 C 319.488281 82.417969 318.574219 82.328125 317.667969 82.148438 C 316.761719 81.96875 315.882812 81.699219 315.027344 81.347656 C 314.171875 80.992188 313.363281 80.558594 312.59375 80.046875 C 311.824219 79.53125 311.113281 78.949219 310.460938 78.296875 C 309.808594 77.644531 309.222656 76.933594 308.710938 76.164062 C 308.195312 75.394531 307.761719 74.585938 307.410156 73.730469 C 307.054688 72.878906 306.789062 71.996094 306.609375 71.089844 C 306.429688 70.183594 306.339844 69.269531 306.339844 68.347656 C 306.339844 67.421875 306.429688 66.507812 306.609375 65.601562 C 306.789062 64.695312 307.054688 63.816406 307.410156 62.960938 C 307.761719 62.109375 308.195312 61.296875 308.710938 60.527344 C 309.222656 59.761719 309.808594 59.050781 310.460938 58.394531 C 311.113281 57.742188 311.824219 57.160156 312.59375 56.644531 C 313.363281 56.132812 314.171875 55.699219 315.027344 55.347656 C 315.878906 54.992188 316.761719 54.726562 317.667969 54.546875 C 318.574219 54.363281 319.488281 54.273438 320.414062 54.273438 C 321.335938 54.273438 322.253906 54.363281 323.160156 54.546875 C 324.066406 54.726562 324.945312 54.992188 325.800781 55.347656 C 326.652344 55.699219 327.464844 56.132812 328.234375 56.644531 C 329 57.160156 329.710938 57.742188 330.367188 58.394531 C 331.019531 59.050781 331.601562 59.761719 332.117188 60.527344 C 332.628906 61.296875 333.0625 62.109375 333.417969 62.960938 C 333.769531 63.816406 334.039062 64.695312 334.21875 65.601562 C 334.398438 66.507812 334.488281 67.421875 334.488281 68.347656 Z M 334.488281 68.347656 " fill-opacity="1" fill-rule="nonzero"/><path fill="#263156" d="M 413.511719 68.347656 C 413.511719 69.269531 413.421875 70.183594 413.242188 71.089844 C 413.0625 71.996094 412.792969 72.878906 412.441406 73.730469 C 412.085938 74.585938 411.652344 75.394531 411.140625 76.164062 C 410.625 76.933594 410.042969 77.644531 409.390625 78.296875 C 408.734375 78.949219 408.023438 79.53125 407.257812 80.046875 C 406.488281 80.558594 405.675781 80.992188 404.824219 81.347656 C 403.96875 81.699219 403.089844 81.96875 402.183594 82.148438 C 401.277344 82.328125 400.359375 82.417969 399.4375 82.417969 C 398.511719 82.417969 397.597656 82.328125 396.691406 82.148438 C 395.785156 81.96875 394.902344 81.699219 394.050781 81.347656 C 393.195312 80.992188 392.386719 80.558594 391.617188 80.046875 C 390.847656 79.53125 390.136719 78.949219 389.484375 78.296875 C 388.832031 77.644531 388.246094 76.933594 387.734375 76.164062 C 387.21875 75.394531 386.785156 74.585938 386.433594 73.730469 C 386.078125 72.878906 385.8125 71.996094 385.632812 71.089844 C 385.453125 70.183594 385.363281 69.269531 385.363281 68.347656 C 385.363281 67.421875 385.453125 66.507812 385.632812 65.601562 C 385.8125 64.695312 386.078125 63.816406 386.433594 62.960938 C 386.785156 62.109375 387.21875 61.296875 387.734375 60.527344 C 388.246094 59.761719 388.832031 59.050781 389.484375 58.394531 C 390.136719 57.742188 390.847656 57.160156 391.617188 56.644531 C 392.386719 56.132812 393.195312 55.699219 394.050781 55.347656 C 394.902344 54.992188 395.785156 54.726562 396.691406 54.546875 C 397.597656 54.363281 398.511719 54.273438 399.4375 54.273438 C 400.359375 54.273438 401.277344 54.363281 402.183594 54.546875 C 403.089844 54.726562 403.96875 54.992188 404.824219 55.347656 C 405.675781 55.699219 406.488281 56.132812 407.257812 56.644531 C 408.023438 57.160156 408.734375 57.742188 409.390625 58.394531 C 410.042969 59.050781 410.625 59.761719 411.140625 60.527344 C 411.652344 61.296875 412.085938 62.109375 412.441406 62.960938 C 412.792969 63.816406 413.0625 64.695312 413.242188 65.601562 C 413.421875 66.507812 413.511719 67.421875 413.511719 68.347656 Z M 413.511719 68.347656 " fill-opacity="1" fill-rule="nonzero"/><path fill="#263156" d="M 492.335938 68.347656 C 492.335938 69.269531 492.242188 70.183594 492.0625 71.089844 C 491.882812 71.996094 491.617188 72.878906 491.261719 73.730469 C 490.910156 74.585938 490.476562 75.394531 489.960938 76.164062 C 489.449219 76.933594 488.863281 77.644531 488.210938 78.296875 C 487.558594 78.949219 486.847656 79.53125 486.078125 80.046875 C 485.308594 80.558594 484.5 80.992188 483.644531 81.347656 C 482.792969 81.699219 481.910156 81.96875 481.003906 82.148438 C 480.097656 82.328125 479.183594 82.417969 478.257812 82.417969 C 477.335938 82.417969 476.417969 82.328125 475.511719 82.148438 C 474.605469 81.96875 473.726562 81.699219 472.871094 81.347656 C 472.019531 80.992188 471.207031 80.558594 470.4375 80.046875 C 469.671875 79.53125 468.960938 78.949219 468.304688 78.296875 C 467.652344 77.644531 467.070312 76.933594 466.554688 76.164062 C 466.042969 75.394531 465.609375 74.585938 465.253906 73.730469 C 464.902344 72.878906 464.632812 71.996094 464.453125 71.089844 C 464.273438 70.183594 464.183594 69.269531 464.183594 68.347656 C 464.183594 67.421875 464.273438 66.507812 464.453125 65.601562 C 464.632812 64.695312 464.902344 63.816406 465.253906 62.960938 C 465.609375 62.109375 466.042969 61.296875 466.554688 60.527344 C 467.070312 59.761719 467.652344 59.050781 468.304688 58.394531 C 468.960938 57.742188 469.671875 57.160156 470.4375 56.644531 C 471.207031 56.132812 472.019531 55.699219 472.871094 55.347656 C 473.726562 54.992188 474.605469 54.726562 475.511719 54.546875 C 476.417969 54.363281 477.335938 54.273438 478.257812 54.273438 C 479.183594 54.273438 480.097656 54.363281 481.003906 54.546875 C 481.910156 54.726562 482.792969 54.992188 483.644531 55.347656 C 484.5 55.699219 485.308594 56.132812 486.078125 56.644531 C 486.847656 57.160156 487.558594 57.742188 488.210938 58.394531 C 488.863281 59.050781 489.449219 59.761719 489.960938 60.527344 C 490.476562 61.296875 490.910156 62.109375 491.261719 62.960938 C 491.617188 63.816406 491.882812 64.695312 492.0625 65.601562 C 492.242188 66.507812 492.335938 67.421875 492.335938 68.347656 Z M 492.335938 68.347656 " fill-opacity="1" fill-rule="nonzero"/><path fill="#263156" d="M 571.15625 68.347656 C 571.15625 69.269531 571.066406 70.183594 570.886719 71.089844 C 570.707031 71.996094 570.4375 72.878906 570.085938 73.730469 C 569.730469 74.585938 569.296875 75.394531 568.785156 76.164062 C 568.269531 76.933594 567.6875 77.644531 567.035156 78.296875 C 566.378906 78.949219 565.667969 79.53125 564.902344 80.046875 C 564.132812 80.558594 563.320312 80.992188 562.46875 81.347656 C 561.613281 81.699219 560.734375 81.96875 559.828125 82.148438 C 558.921875 82.328125 558.003906 82.417969 557.082031 82.417969 C 556.15625 82.417969 555.242188 82.328125 554.335938 82.148438 C 553.429688 81.96875 552.546875 81.699219 551.695312 81.347656 C 550.839844 80.992188 550.03125 80.558594 549.261719 80.046875 C 548.492188 79.53125 547.78125 78.949219 547.128906 78.296875 C 546.476562 77.644531 545.890625 76.933594 545.378906 76.164062 C 544.863281 75.394531 544.429688 74.585938 544.078125 73.730469 C 543.722656 72.878906 543.457031 71.996094 543.277344 71.089844 C 543.097656 70.183594 543.003906 69.269531 543.003906 68.347656 C 543.003906 67.421875 543.097656 66.507812 543.277344 65.601562 C 543.457031 64.695312 543.722656 63.816406 544.078125 62.960938 C 544.429688 62.109375 544.863281 61.296875 545.378906 60.527344 C 545.890625 59.761719 546.476562 59.050781 547.128906 58.394531 C 547.78125 57.742188 548.492188 57.160156 549.261719 56.644531 C 550.03125 56.132812 550.839844 55.699219 551.695312 55.347656 C 552.546875 54.992188 553.429688 54.726562 554.335938 54.546875 C 555.242188 54.363281 556.15625 54.273438 557.082031 54.273438 C 558.003906 54.273438 558.921875 54.363281 559.828125 54.546875 C 560.734375 54.726562 561.613281 54.992188 562.46875 55.347656 C 563.320312 55.699219 564.132812 56.132812 564.902344 56.644531 C 565.667969 57.160156 566.378906 57.742188 567.035156 58.394531 C 567.6875 59.050781 568.269531 59.761719 568.785156 60.527344 C 569.296875 61.296875 569.730469 62.109375 570.085938 62.960938 C 570.4375 63.816406 570.707031 64.695312 570.886719 65.601562 C 571.066406 66.507812 571.15625 67.421875 571.15625 68.347656 Z M 571.15625 68.347656 " fill-opacity="1" fill-rule="nonzero"/><path fill="#263156" d="M 649.980469 68.347656 C 649.976562 69.269531 649.886719 70.183594 649.707031 71.089844 C 649.527344 71.996094 649.261719 72.878906 648.90625 73.730469 C 648.554688 74.585938 648.121094 75.394531 647.605469 76.164062 C 647.09375 76.933594 646.507812 77.644531 645.855469 78.296875 C 645.203125 78.949219 644.492188 79.53125 643.722656 80.046875 C 642.953125 80.558594 642.144531 80.992188 641.289062 81.347656 C 640.4375 81.699219 639.554688 81.96875 638.648438 82.148438 C 637.742188 82.328125 636.828125 82.417969 635.902344 82.417969 C 634.980469 82.417969 634.0625 82.328125 633.15625 82.148438 C 632.25 81.96875 631.371094 81.699219 630.515625 81.347656 C 629.664062 80.992188 628.851562 80.558594 628.082031 80.046875 C 627.316406 79.53125 626.605469 78.949219 625.949219 78.296875 C 625.296875 77.644531 624.714844 76.933594 624.199219 76.164062 C 623.6875 75.394531 623.253906 74.585938 622.898438 73.730469 C 622.546875 72.878906 622.277344 71.996094 622.097656 71.089844 C 621.917969 70.183594 621.828125 69.269531 621.828125 68.347656 C 621.828125 67.421875 621.917969 66.507812 622.097656 65.601562 C 622.277344 64.695312 622.546875 63.816406 622.898438 62.960938 C 623.253906 62.109375 623.6875 61.296875 624.199219 60.527344 C 624.714844 59.761719 625.296875 59.050781 625.949219 58.394531 C 626.605469 57.742188 627.316406 57.160156 628.082031 56.644531 C 628.851562 56.132812 629.664062 55.699219 630.515625 55.347656 C 631.371094 54.992188 632.25 54.726562 633.15625 54.546875 C 634.0625 54.363281 634.980469 54.273438 635.902344 54.273438 C 636.828125 54.273438 637.742188 54.363281 638.648438 54.546875 C 639.554688 54.726562 640.4375 54.992188 641.289062 55.347656 C 642.144531 55.699219 642.953125 56.132812 643.722656 56.644531 C 644.492188 57.160156 645.203125 57.742188 645.855469 58.394531 C 646.507812 59.050781 647.09375 59.761719 647.605469 60.527344 C 648.121094 61.296875 648.554688 62.109375 648.90625 62.960938 C 649.261719 63.816406 649.527344 64.695312 649.707031 65.601562 C 649.886719 66.507812 649.976562 67.421875 649.980469 68.347656 Z M 649.980469 68.347656 " fill-opacity="1" fill-rule="nonzero"/><path fill="#ffffff" d="M 321.21875 69.148438 C 317.195312 69.148438 313.777344 65.933594 313.777344 61.710938 L 313.777344 7.4375 C 313.777344 3.417969 316.996094 0 321.21875 0 C 325.238281 0 328.65625 3.214844 328.65625 7.4375 L 328.65625 61.710938 C 328.65625 65.734375 325.441406 69.148438 321.21875 69.148438 Z M 321.21875 69.148438 " fill-opacity="1" fill-rule="nonzero"/><path fill="#ffffff" d="M 399.035156 69.148438 C 395.011719 69.148438 391.59375 65.933594 391.59375 61.710938 L 391.59375 7.4375 C 391.59375 3.417969 394.8125 0 399.035156 0 C 403.054688 0 406.472656 3.214844 406.472656 7.4375 L 406.472656 61.710938 C 406.273438 65.734375 403.054688 69.148438 399.035156 69.148438 Z M 399.035156 69.148438 " fill-opacity="1" fill-rule="nonzero"/><path fill="#ffffff" d="M 478.257812 69.148438 C 474.238281 69.148438 470.820312 65.933594 470.820312 61.710938 L 470.820312 7.4375 C 470.820312 3.417969 474.035156 0 478.257812 0 C 482.28125 0 485.699219 3.214844 485.699219 7.4375 L 485.699219 61.710938 C 485.496094 65.734375 482.28125 69.148438 478.257812 69.148438 Z M 478.257812 69.148438 " fill-opacity="1" fill-rule="nonzero"/><path fill="#ffffff" d="M 556.878906 69.148438 C 552.859375 69.148438 549.441406 65.933594 549.441406 61.710938 L 549.441406 7.4375 C 549.441406 3.417969 552.65625 0 556.878906 0 C 560.902344 0 564.320312 3.214844 564.320312 7.4375 L 564.320312 61.710938 C 564.117188 65.734375 560.902344 69.148438 556.878906 69.148438 Z M 556.878906 69.148438 " fill-opacity="1" fill-rule="nonzero"/><path fill="#ffffff" d="M 636.105469 69.148438 C 632.082031 69.148438 628.664062 65.933594 628.664062 61.710938 L 628.664062 7.4375 C 628.664062 3.417969 631.882812 0 636.105469 0 C 640.125 0 643.542969 3.214844 643.542969 7.4375 L 643.542969 61.710938 C 643.34375 65.734375 640.125 69.148438 636.105469 69.148438 Z M 636.105469 69.148438 " fill-opacity="1" fill-rule="nonzero"/><path stroke-linecap="round" transform="matrix(2.010769, 0, 0, 2.010185, -133.819253, -158.201516)" fill="none" stroke-linejoin="round" d="M 349.399349 168.500495 C 357.199147 164.400281 371.100855 152.700098 379.800107 151.699335 C 386.100168 150.999772 392.699399 151.300973 398.300101 154.099223 C 403.900803 156.899416 408.300938 162.900108 407.799731 169.200057 C 407.599637 171.899203 406.500088 174.400139 405.200446 176.700922 C 400.200027 185.40076 391.300681 191.799814 381.499938 193.700292 C 377.200822 194.500902 372.899762 194.500902 368.499627 194.500902 C 365.900342 194.500902 363.200038 194.500902 361.100018 193.099834 C 358.700827 191.599661 357.50026 188.900516 356.600807 186.199427 C 353.199201 176.199569 352.800955 165.099844 355.40024 154.899833 " stroke="#e25469" stroke-width="3.381" stroke-opacity="1" stroke-miterlimit="10"/><path fill="#ebaec1" d="M 340.117188 275.195312 C 334.289062 279.617188 331.875 287.457031 333.28125 294.691406 C 339.515625 327.058594 362.238281 439.628906 386.164062 436.410156 C 414.515625 432.589844 385.761719 334.292969 374.90625 307.757812 C 365.855469 285.648438 354.394531 264.539062 340.117188 275.195312 Z M 340.117188 275.195312 " fill-opacity="1" fill-rule="nonzero"/><path fill="#263156" d="M 328.054688 100.910156 C 328.054688 100.910156 277.585938 79.601562 260.089844 124.832031 C 242.597656 169.859375 204.59375 250.671875 204.59375 250.671875 L 326.648438 322.03125 C 326.648438 322.03125 394.8125 147.144531 350.976562 123.625 Z M 328.054688 100.910156 " fill-opacity="1" fill-rule="nonzero"/><path fill="#ebaec1" d="M 312.773438 247.65625 C 312.773438 247.65625 286.429688 265.746094 285.828125 265.746094 C 285.226562 265.546875 236.765625 231.574219 253.65625 236.195312 C 263.105469 238.808594 269.140625 231.574219 272.558594 224.539062 C 272.757812 223.933594 273.160156 223.53125 273.363281 222.929688 C 273.5625 222.527344 273.761719 222.125 273.964844 221.722656 C 274.566406 220.316406 275.171875 218.910156 275.371094 217.703125 C 275.773438 216.898438 275.976562 216.09375 276.175781 215.289062 C 276.175781 214.890625 276.78125 212.878906 277.585938 210.464844 C 278.789062 206.042969 280.398438 200.011719 280.398438 200.011719 C 280.398438 200.011719 312.773438 211.875 314.582031 222.726562 C 314.785156 223.53125 312.167969 230.566406 311.96875 231.371094 C 311.566406 232.980469 311.164062 234.589844 310.960938 235.792969 C 310.761719 236.597656 310.761719 237.402344 310.761719 238.007812 C 310.5625 239.613281 310.761719 241.019531 310.761719 242.226562 C 310.960938 246.449219 312.773438 247.65625 312.773438 247.65625 Z M 312.773438 247.65625 " fill-opacity="1" fill-rule="nonzero"/><path fill="#ebaec1" d="M 305.734375 245.445312 C 305.734375 245.445312 311.164062 246.046875 320.613281 249.261719 C 323.429688 250.269531 326.648438 251.273438 330.265625 252.679688 C 331.671875 253.285156 333.082031 253.886719 334.488281 254.488281 C 348.765625 260.519531 351.582031 279.617188 353.589844 301.527344 C 354.195312 307.355469 354.597656 313.386719 355.402344 319.621094 C 358.617188 348.363281 334.488281 371.683594 328.457031 388.972656 C 322.625 406.257812 318.804688 479.429688 309.355469 482.644531 C 299.902344 485.863281 190.71875 448.269531 188.105469 445.054688 C 186.296875 443.042969 191.722656 379.925781 191.722656 327.058594 C 191.722656 300.320312 182.273438 278.613281 186.09375 263.9375 C 191.722656 242.628906 207.207031 234.992188 221.683594 232.980469 C 224.097656 232.578125 226.308594 232.378906 228.519531 232.378906 C 240.785156 231.976562 250.640625 234.589844 250.640625 234.589844 Z M 305.734375 245.445312 " fill-opacity="1" fill-rule="nonzero"/><path fill="#ebaec1" d="M 339.113281 256.5 C 339.113281 256.5 361.230469 267.957031 375.910156 304.34375 C 390.589844 340.726562 405.871094 413.09375 404.261719 435.203125 C 402.652344 457.316406 301.914062 543.753906 302.71875 542.949219 C 303.722656 542.148438 284.21875 520.636719 284.21875 520.636719 L 359.421875 421.132812 L 325.039062 320.824219 Z M 339.113281 256.5 " fill-opacity="1" fill-rule="nonzero"/><path fill="#ebaec1" d="M 404.0625 436.007812 C 400.039062 459.125 301.109375 544.558594 301.914062 543.753906 C 302.917969 542.949219 286.429688 522.046875 286.429688 522.046875 L 357.410156 423.546875 L 359.421875 420.933594 L 325.039062 320.625 L 339.113281 256.296875 C 339.113281 256.296875 361.433594 267.757812 375.910156 304.140625 C 390.386719 340.527344 405.871094 412.890625 404.261719 435.003906 C 404.261719 435.40625 404.261719 435.808594 404.0625 436.007812 Z M 404.0625 436.007812 " fill-opacity="1" fill-rule="nonzero"/><path fill="#e25469" d="M 393.203125 357.410156 L 353.1875 372.285156 L 341.125 376.707031 L 330.871094 347.964844 L 318.203125 312.382812 C 318.203125 312.382812 334.890625 278.8125 334.691406 278.007812 C 334.488281 277.203125 331.472656 251.875 331.472656 251.875 C 331.472656 251.875 332.074219 252.078125 332.878906 252.480469 C 337.707031 254.691406 353.390625 262.933594 363.445312 279.617188 C 375.507812 299.917969 383.351562 321.429688 393.203125 357.410156 Z M 393.203125 357.410156 " fill-opacity="1" fill-rule="nonzero"/><path fill="#ebaec1" d="M 162.367188 361.429688 C 147.6875 377.3125 133.011719 389.976562 121.347656 392.789062 C 116.320312 393.996094 111.898438 393.394531 108.476562 390.175781 C 91.789062 375.101562 145.878906 304.742188 178.050781 265.546875 C 178.652344 264.742188 179.257812 264.136719 179.859375 263.535156 L 180.0625 263.335938 C 181.066406 262.128906 182.074219 260.921875 183.078125 259.714844 C 185.089844 257.304688 186.898438 254.890625 188.707031 252.882812 C 191.320312 249.664062 193.535156 247.050781 195.34375 244.839844 C 195.746094 244.4375 195.945312 244.035156 196.347656 243.835938 C 196.347656 243.835938 196.550781 243.632812 196.550781 243.632812 C 197.355469 242.832031 198.160156 242.226562 198.964844 241.625 C 203.789062 238.007812 210.023438 236.398438 216.457031 238.207031 C 223.695312 240.21875 227.113281 244.839844 227.71875 251.070312 C 228.722656 261.125 222.691406 275.394531 215.652344 289.066406 C 208.414062 302.53125 185.691406 336.101562 162.367188 361.429688 Z M 162.367188 361.429688 " fill-opacity="1" fill-rule="nonzero"/><path fill="#ebaec1" d="M 350.777344 748.191406 L 296.886719 748.191406 C 292.261719 735.125 287.636719 720.851562 283.414062 705.574219 C 281.808594 699.542969 280.199219 693.515625 278.589844 687.28125 C 265.71875 635.417969 260.492188 588.78125 263.507812 562.851562 C 264.515625 554.410156 266.121094 548.378906 268.738281 544.558594 C 270.144531 542.75 271.550781 541.542969 273.363281 541.140625 C 275.574219 540.539062 278.1875 541.34375 280.800781 543.152344 C 283.816406 545.160156 287.035156 548.578125 290.453125 553.203125 C 305.535156 573.90625 323.429688 618.9375 336.902344 672.808594 C 339.316406 682.859375 341.527344 692.710938 343.539062 702.15625 C 346.753906 718.640625 349.167969 734.121094 350.777344 748.191406 Z M 350.777344 748.191406 " fill-opacity="1" fill-rule="nonzero"/><path fill="#ebaec1" d="M 284.621094 748.191406 C 276.175781 725.878906 268.535156 706.378906 268.535156 706.378906 L 283.617188 705.574219 L 343.738281 702.15625 L 353.589844 701.554688 C 353.589844 701.554688 358.417969 724.070312 363.644531 748.191406 Z M 284.621094 748.191406 " fill-opacity="1" fill-rule="nonzero"/><path fill="#ebaec1" d="M 251.042969 748.191406 L 197.152344 748.191406 C 192.527344 735.125 187.902344 720.851562 183.679688 705.574219 C 182.074219 699.542969 180.464844 693.515625 178.855469 687.28125 C 159.953125 610.492188 157.742188 545.160156 173.828125 541.140625 C 189.914062 537.121094 218.46875 596.222656 237.367188 672.808594 C 239.78125 682.859375 241.992188 692.710938 243.804688 702.15625 C 247.019531 718.640625 249.433594 734.121094 251.042969 748.191406 Z M 251.042969 748.191406 " fill-opacity="1" fill-rule="nonzero"/><path fill="#ebaec1" d="M 184.6875 748.191406 C 180.261719 736.734375 176.242188 726.078125 173.226562 718.441406 C 170.410156 711.003906 168.601562 706.378906 168.601562 706.378906 L 171.011719 706.179688 L 183.679688 705.375 L 243.804688 701.957031 L 253.65625 701.355469 C 253.65625 701.355469 258.480469 723.867188 263.710938 747.988281 L 184.6875 747.988281 Z M 184.6875 748.191406 " fill-opacity="1" fill-rule="nonzero"/><path fill="#263156" d="M 372.695312 748.191406 L 179.054688 748.191406 C 177.246094 738.542969 175.234375 728.492188 173.226562 718.441406 C 172.421875 714.417969 171.617188 710.398438 170.8125 706.378906 C 158.949219 645.269531 147.488281 582.753906 145.675781 565.265625 C 140.449219 510.585938 167.191406 472.996094 177.246094 461.136719 C 178.050781 460.132812 178.855469 459.125 179.457031 458.523438 C 180.464844 457.519531 180.867188 456.914062 180.867188 456.914062 L 212.636719 459.125 L 225.304688 459.929688 L 227.316406 460.132812 L 228.921875 460.332031 L 230.53125 460.535156 L 298.898438 465.359375 L 307.542969 465.960938 C 307.542969 465.960938 308.347656 472.796875 309.554688 482.445312 C 309.554688 482.644531 309.554688 483.046875 309.757812 483.25 C 309.957031 484.253906 309.957031 485.257812 310.160156 486.464844 C 310.160156 486.464844 310.160156 486.664062 310.160156 486.664062 C 310.160156 487.46875 310.359375 488.074219 310.359375 488.878906 C 311.566406 498.726562 312.972656 510.386719 314.382812 520.839844 C 314.785156 524.660156 315.386719 528.277344 315.789062 531.492188 C 315.789062 531.492188 315.789062 531.695312 315.789062 531.695312 C 315.789062 531.695312 315.789062 531.894531 315.789062 531.894531 C 315.789062 532.097656 315.789062 532.296875 315.789062 532.5 C 318.203125 548.378906 351.378906 670.597656 372.695312 748.191406 Z M 372.695312 748.191406 " fill-opacity="1" fill-rule="nonzero"/><path fill="#e25469" d="M 337.101562 377.109375 C 337.101562 377.3125 336.902344 377.3125 336.902344 377.511719 C 336.296875 378.519531 335.695312 379.722656 335.09375 380.730469 C 334.289062 382.136719 333.683594 383.34375 333.082031 384.546875 C 332.476562 385.957031 331.875 387.160156 331.472656 388.367188 C 331.273438 388.570312 331.273438 388.972656 331.070312 389.171875 C 329.460938 393.796875 328.054688 402.035156 326.648438 411.886719 C 322.625 440.03125 318.804688 480.433594 311.765625 482.847656 C 302.316406 486.0625 187.902344 448.472656 185.289062 445.457031 C 184.484375 444.453125 185.894531 432.390625 187.5 414.300781 C 189.3125 394.597656 191.320312 367.664062 191.320312 340.125 C 199.566406 286.25 224.902344 243.835938 224.097656 233.382812 C 224.097656 232.378906 223.898438 232.578125 224.097656 232.378906 C 225.101562 231.371094 245.613281 232.175781 246.015625 232.980469 C 248.832031 238.808594 244.003906 258.507812 249.632812 265.949219 C 256.070312 274.589844 318 287.253906 324.835938 282.429688 C 330.46875 278.613281 325.039062 256.699219 323.230469 249.664062 C 323.230469 249.664062 332.074219 250.871094 332.878906 253.082031 C 335.09375 259.714844 340.117188 274.589844 345.144531 284.441406 C 347.558594 289.066406 348.5625 291.277344 350.976562 295.898438 C 354.195312 302.128906 356.40625 308.964844 357.410156 316 C 357.613281 317.207031 357.8125 318.613281 358.015625 319.820312 C 360.429688 342.535156 346.152344 361.632812 337.101562 377.109375 Z M 337.101562 377.109375 " fill-opacity="1" fill-rule="nonzero"/><path fill="#ebaec1" d="M 311.5625 115.539062 C 312.863281 115.703125 314.148438 115.957031 315.421875 116.296875 C 316.691406 116.640625 317.945312 117.066406 319.175781 117.582031 C 320.40625 118.097656 321.609375 118.699219 322.785156 119.382812 C 323.964844 120.066406 325.109375 120.832031 326.222656 121.679688 C 327.335938 122.523438 328.414062 123.449219 329.449219 124.449219 C 330.488281 125.449219 331.484375 126.523438 332.4375 127.667969 C 333.394531 128.8125 334.300781 130.023438 335.160156 131.304688 C 336.019531 132.582031 336.828125 133.921875 337.585938 135.324219 C 338.339844 136.722656 339.042969 138.175781 339.691406 139.683594 C 340.339844 141.191406 340.929688 142.746094 341.460938 144.347656 C 341.992188 145.949219 342.460938 147.589844 342.875 149.265625 C 343.285156 150.945312 343.632812 152.65625 343.917969 154.394531 C 344.203125 156.136719 344.425781 157.898438 344.582031 159.683594 C 344.742188 161.46875 344.835938 163.269531 344.863281 165.082031 C 344.890625 166.894531 344.855469 168.710938 344.753906 170.535156 C 344.652344 172.359375 344.488281 174.179688 344.257812 175.996094 C 344.03125 177.808594 343.738281 179.613281 343.382812 181.40625 C 343.027344 183.195312 342.609375 184.964844 342.128906 186.714844 C 341.652344 188.464844 341.113281 190.183594 340.515625 191.871094 C 339.917969 193.5625 339.265625 195.214844 338.558594 196.828125 C 337.847656 198.445312 337.085938 200.015625 336.269531 201.539062 C 335.453125 203.0625 334.589844 204.535156 333.675781 205.953125 C 332.765625 207.371094 331.804688 208.730469 330.804688 210.027344 C 329.800781 211.328125 328.761719 212.5625 327.679688 213.730469 C 326.597656 214.898438 325.480469 215.996094 324.332031 217.019531 C 323.179688 218.042969 322 218.992188 320.792969 219.867188 C 319.582031 220.738281 318.351562 221.53125 317.097656 222.242188 C 315.84375 222.953125 314.570312 223.578125 313.28125 224.121094 C 311.992188 224.664062 310.691406 225.121094 309.382812 225.492188 C 308.070312 225.863281 306.753906 226.144531 305.433594 226.335938 C 304.117188 226.53125 302.796875 226.632812 301.480469 226.648438 C 300.164062 226.664062 298.855469 226.589844 297.554688 226.425781 C 296.253906 226.261719 294.96875 226.007812 293.699219 225.667969 C 292.425781 225.324219 291.175781 224.898438 289.945312 224.382812 C 288.714844 223.867188 287.511719 223.265625 286.332031 222.582031 C 285.15625 221.898438 284.011719 221.132812 282.898438 220.285156 C 281.785156 219.441406 280.707031 218.515625 279.667969 217.515625 C 278.628906 216.515625 277.632812 215.441406 276.679688 214.296875 C 275.726562 213.152344 274.820312 211.9375 273.960938 210.660156 C 273.101562 209.382812 272.292969 208.042969 271.535156 206.640625 C 270.777344 205.242188 270.078125 203.789062 269.429688 202.28125 C 268.78125 200.773438 268.191406 199.21875 267.660156 197.617188 C 267.128906 196.015625 266.65625 194.375 266.246094 192.695312 C 265.835938 191.019531 265.488281 189.308594 265.203125 187.570312 C 264.917969 185.828125 264.695312 184.066406 264.539062 182.28125 C 264.378906 180.496094 264.285156 178.695312 264.257812 176.882812 C 264.230469 175.070312 264.265625 173.25 264.367188 171.429688 C 264.464844 169.605469 264.632812 167.785156 264.859375 165.96875 C 265.089844 164.152344 265.382812 162.351562 265.738281 160.558594 C 266.09375 158.769531 266.511719 157 266.992188 155.25 C 267.46875 153.5 268.007812 151.78125 268.605469 150.089844 C 269.199219 148.402344 269.855469 146.75 270.5625 145.132812 C 271.273438 143.519531 272.035156 141.949219 272.851562 140.425781 C 273.664062 138.902344 274.53125 137.429688 275.441406 136.011719 C 276.355469 134.59375 277.3125 133.234375 278.316406 131.933594 C 279.316406 130.636719 280.359375 129.402344 281.441406 128.234375 C 282.523438 127.066406 283.640625 125.96875 284.789062 124.945312 C 285.941406 123.917969 287.121094 122.972656 288.328125 122.097656 C 289.535156 121.226562 290.769531 120.433594 292.023438 119.722656 C 293.277344 119.011719 294.550781 118.386719 295.839844 117.839844 C 297.128906 117.296875 298.429688 116.84375 299.738281 116.472656 C 301.050781 116.101562 302.363281 115.820312 303.683594 115.625 C 305.003906 115.433594 306.324219 115.328125 307.640625 115.316406 C 308.957031 115.300781 310.265625 115.375 311.5625 115.539062 Z M 311.5625 115.539062 " fill-opacity="1" fill-rule="nonzero"/><path fill="#ffffff" d="M 289.851562 205.441406 C 289.851562 205.441406 302.316406 193.78125 306.941406 210.0625 Z M 289.851562 205.441406 " fill-opacity="1" fill-rule="nonzero"/><path fill="#263156" d="M 327.453125 182.324219 C 322.828125 172.875 315.585938 178.304688 315.585938 178.304688 Z M 327.453125 182.324219 " fill-opacity="1" fill-rule="nonzero"/><path fill="#263156" d="M 284.019531 171.667969 C 292.464844 165.4375 296.484375 173.679688 296.484375 173.679688 Z M 284.019531 171.667969 " fill-opacity="1" fill-rule="nonzero"/><path fill="#263156" d="M 347.359375 140.109375 C 347.359375 140.109375 339.917969 146.140625 327.050781 149.355469 C 320.613281 150.964844 301.511719 146.140625 293.46875 146.945312 C 269.542969 149.960938 254.058594 200.617188 254.058594 200.617188 C 254.058594 200.617188 241.589844 158.203125 273.160156 115.183594 C 298.695312 80.40625 350.777344 104.128906 350.777344 123.425781 C 350.777344 123.425781 366.460938 135.285156 355.804688 157.195312 C 356.207031 157.398438 356.40625 144.734375 347.359375 140.109375 Z M 347.359375 140.109375 " fill-opacity="1" fill-rule="nonzero"/><path fill="#ebaec1" d="M 398.230469 430.378906 C 400.039062 439.023438 396.421875 447.871094 390.1875 453.699219 C 360.429688 481.839844 284.019531 554.007812 269.140625 544.558594 C 262.703125 540.539062 376.714844 404.046875 387.371094 406.257812 C 395.214844 407.867188 395.617188 418.519531 398.230469 430.378906 Z M 398.230469 430.378906 " fill-opacity="1" fill-rule="nonzero"/><path fill="#ebaec1" d="M 243.804688 560.640625 L 257.476562 562.851562 C 260.695312 562.851562 263.507812 563.054688 266.324219 562.851562 C 269.941406 562.851562 273.363281 562.449219 277.183594 560.839844 L 294.472656 551.191406 L 288.644531 526.667969 L 287.4375 523.453125 L 275.171875 519.03125 C 271.953125 517.824219 268.738281 517.421875 265.320312 518.023438 L 251.644531 523.652344 C 251.644531 523.652344 249.835938 527.875 258.078125 526.667969 C 260.292969 526.265625 263.507812 527.875 266.121094 529.082031 L 261.296875 530.285156 L 258.078125 531.292969 L 238.777344 538.125 C 233.75 539.9375 229.125 545.964844 230.933594 551.996094 C 230.734375 551.796875 233.949219 560.039062 243.804688 560.640625 Z M 243.804688 560.640625 " fill-opacity="1" fill-rule="nonzero"/><path fill="#ebaec1" d="M 119.136719 375.300781 C 126.777344 372.6875 135.222656 375.101562 141.453125 380.328125 C 170.210938 404.648438 258.683594 483.449219 255.0625 499.328125 C 251.644531 514.003906 115.515625 416.914062 109.28125 396.007812 C 106.265625 385.554688 108.679688 378.917969 119.136719 375.300781 Z M 119.136719 375.300781 " fill-opacity="1" fill-rule="nonzero"/><path fill="#ebaec1" d="M 251.847656 463.949219 L 238.375 467.769531 L 236.765625 470.988281 L 226.914062 494.304688 L 246.417969 508.175781 C 250.238281 510.183594 253.855469 510.789062 257.675781 511.191406 C 260.695312 511.390625 263.710938 511.390625 266.925781 511.792969 L 281.605469 510.585938 C 292.0625 510.789062 296.082031 502.34375 296.082031 502.34375 C 298.496094 496.113281 293.871094 489.277344 288.84375 487.066406 L 268.9375 478.222656 L 265.519531 477.015625 L 260.695312 475.207031 C 261.296875 475.007812 262.101562 474.605469 262.703125 474.402344 C 265.117188 473.597656 267.53125 472.796875 269.339844 473.199219 C 277.988281 475.007812 276.578125 470.382812 276.578125 470.382812 L 262.503906 463.347656 C 262.101562 463.347656 261.898438 463.148438 261.496094 463.148438 C 258.078125 462.746094 254.863281 462.945312 251.847656 463.949219 Z M 251.847656 463.949219 " fill-opacity="1" fill-rule="nonzero"/><path fill="#ebaec1" d="M 250.035156 480.835938 L 154.121094 379.523438 L 223.898438 296.300781 L 196.953125 243.230469 C 196.953125 243.230469 95.007812 345.953125 104.859375 386.359375 C 114.710938 426.761719 231.136719 497.117188 231.136719 497.117188 Z M 250.035156 480.835938 " fill-opacity="1" fill-rule="nonzero"/><path fill="#e25469" d="M 224.097656 232.578125 C 224.097656 232.578125 208.816406 233.785156 198.964844 241.222656 C 188.910156 248.660156 151.910156 290.472656 141.054688 305.75 L 184.6875 345.148438 C 184.6875 345.148438 226.109375 301.527344 226.914062 299.316406 C 227.71875 297.105469 253.253906 293.6875 253.253906 293.6875 Z M 224.097656 232.578125 " fill-opacity="1" fill-rule="nonzero"/><path fill="#ebaec1" d="M 404.0625 436.007812 C 400.039062 459.125 293.46875 551.796875 294.273438 550.992188 C 295.277344 550.1875 282.8125 522.445312 282.8125 522.445312 L 357.210938 423.746094 Z M 404.0625 436.007812 " fill-opacity="1" fill-rule="nonzero"/><path stroke-linecap="butt" transform="matrix(2.010769, 0, 0, 2.010185, -133.819253, -158.201516)" fill="none" stroke-linejoin="miter" d="M 218.300574 169.89962 C 218.300574 169.89962 218.799839 172.699813 216.29963 174.499244 " stroke="#263156" stroke-width="0.5" stroke-opacity="1" stroke-miterlimit="10"/><path fill="#ffffff" d="M 358.214844 510.585938 C 358.214844 510.585938 360.828125 511.59375 365.65625 513.402344 C 369.476562 514.808594 374.503906 516.820312 380.738281 519.230469 L 379.328125 519.632812 C 379.933594 518.628906 380.9375 517.21875 381.742188 515.8125 C 384.757812 511.191406 388.175781 505.964844 392.199219 499.933594 L 393.203125 498.324219 L 394.8125 499.53125 C 397.023438 501.339844 399.839844 503.550781 402.855469 505.964844 C 404.867188 507.570312 406.875 509.179688 409.089844 510.789062 C 409.691406 511.191406 410.09375 511.59375 410.695312 511.792969 L 411.097656 511.996094 L 411.300781 511.996094 L 411.097656 512.195312 C 410.898438 512.597656 410.695312 513 410.695312 513.199219 C 410.695312 513.601562 410.496094 513.601562 410.496094 513.804688 C 410.496094 513.804688 410.496094 514.003906 410.496094 513.804688 C 409.691406 513.402344 412.507812 514.609375 408.484375 513 L 408.6875 512.796875 L 408.886719 512.394531 C 409.492188 511.191406 410.09375 509.984375 410.496094 508.578125 C 412.707031 503.550781 415.121094 498.527344 417.535156 493.5 L 418.941406 490.6875 L 421.355469 492.898438 C 421.554688 493.097656 421.957031 493.5 422.359375 493.703125 C 426.984375 498.125 431.609375 502.546875 436.03125 506.769531 L 432.613281 507.371094 C 434.828125 502.746094 437.039062 498.324219 439.25 494.105469 C 440.457031 491.492188 441.863281 488.878906 442.871094 487.066406 L 443.875 485.257812 L 445.484375 486.265625 C 452.519531 490.484375 458.351562 494.105469 463.78125 497.519531 C 463.78125 497.519531 463.980469 497.722656 463.980469 497.722656 L 462.375 497.921875 C 468.40625 491.890625 473.632812 487.066406 477.050781 483.652344 C 480.671875 480.234375 482.882812 478.222656 482.882812 478.222656 C 482.882812 478.222656 481.074219 480.433594 477.855469 484.253906 C 474.640625 488.074219 470.015625 493.5 464.382812 499.730469 L 463.78125 500.535156 L 462.777344 500.132812 C 462.777344 500.132812 462.574219 500.132812 462.574219 499.933594 C 457.144531 496.917969 450.914062 493.5 443.671875 489.679688 L 446.289062 488.878906 C 445.484375 490.886719 444.277344 493.5 443.070312 496.113281 C 441.058594 500.335938 439.046875 504.957031 436.835938 509.582031 L 435.628906 512.394531 L 433.417969 510.386719 C 428.996094 506.164062 424.371094 501.941406 419.746094 497.519531 C 419.34375 497.320312 419.140625 496.917969 418.941406 496.71875 L 422.558594 496.113281 C 420.148438 501.140625 417.9375 505.964844 415.523438 510.988281 C 414.917969 512.195312 414.316406 513.402344 413.714844 514.609375 L 413.511719 515.007812 L 413.3125 515.210938 L 413.109375 515.8125 C 412.910156 516.214844 412.304688 516.417969 412.105469 516.617188 C 411.902344 516.617188 411.703125 516.820312 411.5 516.820312 C 411.300781 516.820312 411.097656 516.820312 411.097656 516.820312 L 410.898438 516.820312 C 410.695312 516.820312 410.695312 516.820312 410.496094 516.820312 C 409.890625 516.617188 409.890625 516.417969 409.691406 516.417969 L 409.089844 516.015625 C 408.484375 515.613281 407.882812 515.210938 407.277344 514.808594 C 405.066406 513.199219 403.054688 511.390625 401.046875 509.78125 C 398.230469 507.371094 395.414062 504.957031 393.203125 502.949219 L 395.816406 502.546875 C 391.394531 508.375 387.773438 513.402344 384.355469 518.023438 C 383.351562 519.433594 382.34375 520.636719 381.539062 521.644531 L 380.9375 522.445312 L 380.132812 522.046875 C 374.101562 519.03125 369.273438 516.617188 365.453125 514.808594 C 360.628906 511.992188 358.214844 510.585938 358.214844 510.585938 Z M 358.214844 510.585938 " fill-opacity="1" fill-rule="nonzero"/><path fill="#ffffff" d="M 366.058594 532.898438 C 366.058594 532.898438 368.269531 534.910156 371.890625 538.125 C 374.90625 540.941406 378.925781 544.558594 383.753906 549.183594 L 382.34375 548.980469 C 383.351562 548.175781 384.757812 547.375 386.164062 546.367188 C 390.789062 543.152344 395.816406 539.535156 401.847656 535.3125 L 403.457031 534.308594 L 404.464844 536.117188 C 405.871094 538.527344 407.679688 541.746094 409.492188 544.960938 C 410.695312 547.171875 412.105469 549.382812 413.511719 551.59375 C 413.914062 552.199219 414.113281 552.601562 414.515625 553.203125 L 414.71875 553.605469 L 414.515625 553.804688 C 414.316406 554.007812 413.914062 554.410156 413.714844 554.609375 C 413.511719 554.8125 413.3125 555.011719 413.3125 555.214844 C 413.3125 555.214844 413.3125 555.414062 413.3125 555.214844 C 412.707031 554.609375 414.917969 556.621094 411.703125 553.804688 L 412.304688 553.203125 C 413.3125 552.199219 414.316406 551.394531 415.320312 550.386719 C 419.34375 546.570312 423.363281 542.75 427.386719 538.929688 L 429.597656 536.71875 L 431.003906 539.535156 C 431.207031 539.933594 431.40625 540.335938 431.609375 540.738281 C 434.222656 546.570312 437.039062 552.398438 439.449219 557.824219 L 436.03125 557.222656 C 439.851562 553.605469 443.472656 550.386719 447.09375 547.171875 C 449.304688 545.160156 451.316406 543.351562 452.921875 541.945312 L 454.53125 540.539062 L 455.738281 542.148438 C 460.5625 548.578125 464.988281 554.207031 468.605469 559.234375 C 468.605469 559.234375 468.808594 559.433594 468.808594 559.433594 L 467.199219 559.03125 C 475.042969 555.613281 481.476562 553 486.101562 550.992188 C 490.726562 549.183594 493.539062 547.976562 493.539062 547.976562 C 493.539062 547.976562 490.925781 549.382812 486.503906 551.796875 C 482.078125 554.007812 475.847656 557.425781 468.203125 561.242188 L 467.402344 561.644531 L 466.796875 560.839844 C 466.796875 560.839844 466.597656 560.640625 466.597656 560.640625 C 462.574219 555.816406 457.949219 550.386719 452.722656 544.15625 L 455.539062 544.359375 C 453.929688 545.964844 451.917969 547.976562 449.90625 549.988281 C 446.488281 553.203125 442.871094 556.621094 439.25 560.238281 L 437.039062 562.25 L 435.832031 559.433594 C 433.21875 554.007812 430.605469 548.175781 427.789062 542.347656 C 427.585938 541.945312 427.386719 541.542969 427.183594 541.140625 L 430.804688 541.746094 C 426.78125 545.5625 422.761719 549.183594 418.941406 553 C 417.9375 554.007812 416.929688 554.8125 415.925781 555.816406 L 415.523438 556.21875 L 415.320312 556.417969 L 414.917969 556.820312 C 414.515625 557.023438 413.914062 557.222656 413.714844 557.222656 C 413.511719 557.222656 413.3125 557.222656 413.109375 557.222656 C 412.910156 557.222656 412.707031 557.023438 412.707031 557.023438 L 412.507812 556.820312 C 412.304688 556.621094 412.304688 556.621094 412.304688 556.621094 C 411.902344 556.21875 411.902344 556.015625 411.703125 555.816406 L 411.300781 555.414062 C 410.898438 554.8125 410.496094 554.207031 410.09375 553.605469 C 408.6875 551.191406 407.480469 548.980469 406.273438 546.570312 C 404.464844 543.152344 402.855469 539.933594 401.648438 537.320312 L 404.261719 537.925781 C 398.027344 541.746094 392.800781 545.160156 387.976562 547.976562 C 386.566406 548.78125 385.160156 549.785156 384.15625 550.386719 L 383.351562 550.992188 L 382.746094 550.386719 C 378.121094 545.363281 374.503906 541.34375 371.890625 538.328125 C 367.867188 535.109375 366.058594 532.898438 366.058594 532.898438 Z M 366.058594 532.898438 " fill-opacity="1" fill-rule="nonzero"/><path fill="#ffffff" d="M 365.855469 559.636719 C 365.855469 559.636719 367.265625 562.25 369.476562 566.671875 C 371.285156 570.289062 373.898438 575.113281 376.917969 581.144531 L 375.710938 580.542969 C 376.917969 580.140625 378.523438 579.738281 380.132812 579.335938 C 385.5625 577.929688 391.59375 576.320312 398.632812 574.308594 L 400.441406 573.707031 L 400.84375 575.71875 C 401.246094 578.53125 401.851562 582.148438 402.652344 585.769531 C 403.054688 588.382812 403.660156 590.792969 404.0625 593.40625 C 404.261719 594.007812 404.261719 594.613281 404.464844 595.214844 L 404.664062 595.617188 L 404.664062 595.820312 L 404.464844 596.019531 C 404.0625 596.222656 403.660156 596.421875 403.457031 596.421875 C 403.257812 596.621094 403.054688 596.621094 402.855469 596.824219 C 402.855469 596.824219 402.855469 597.023438 402.855469 596.824219 C 402.453125 596.019531 403.859375 598.632812 401.851562 595.015625 L 402.050781 594.8125 L 402.453125 594.613281 C 403.660156 594.011719 404.867188 593.40625 406.273438 593.003906 C 411.300781 590.792969 416.328125 588.582031 421.554688 586.171875 L 424.371094 584.964844 L 424.570312 588.179688 C 424.570312 588.582031 424.570312 588.984375 424.773438 589.386719 C 425.375 595.820312 425.777344 602.25 426.382812 608.082031 L 423.363281 606.273438 C 428.191406 604.261719 432.816406 602.453125 437.039062 600.644531 C 439.652344 599.636719 442.46875 598.433594 444.476562 597.628906 L 446.289062 596.824219 L 446.890625 598.632812 C 449.304688 606.472656 451.316406 613.105469 453.324219 619.136719 C 453.324219 619.339844 453.324219 619.339844 453.324219 619.339844 L 451.917969 618.535156 C 460.363281 617.929688 467.402344 617.730469 472.425781 617.527344 C 477.453125 617.328125 480.269531 617.328125 480.269531 617.328125 C 480.269531 617.328125 477.453125 617.730469 472.425781 618.535156 C 467.601562 619.136719 460.5625 620.34375 452.117188 621.148438 L 451.113281 621.347656 L 450.710938 620.34375 C 450.710938 620.34375 450.710938 620.140625 450.511719 620.140625 C 448.296875 614.3125 445.886719 607.679688 443.070312 600.039062 L 445.484375 601.246094 C 443.472656 602.25 440.859375 603.257812 438.246094 604.460938 C 433.820312 606.472656 429.398438 608.28125 424.570312 610.492188 L 421.757812 611.699219 L 421.554688 608.683594 C 420.953125 602.652344 420.347656 596.222656 419.746094 589.988281 C 419.746094 589.585938 419.746094 589.183594 419.542969 588.785156 L 422.761719 590.59375 C 417.734375 592.804688 412.707031 595.015625 407.679688 597.023438 C 406.472656 597.628906 405.269531 598.03125 404.0625 598.632812 L 403.660156 598.835938 L 403.457031 598.835938 L 402.855469 599.035156 C 402.453125 599.238281 401.851562 599.035156 401.648438 599.035156 C 401.449219 599.035156 401.246094 598.835938 401.046875 598.632812 C 400.84375 598.433594 400.84375 598.433594 400.644531 598.433594 L 400.441406 598.230469 C 400.242188 598.03125 400.242188 598.03125 400.242188 598.03125 C 400.039062 597.425781 400.039062 597.425781 399.839844 597.023438 L 399.636719 596.421875 C 399.4375 595.617188 399.234375 595.015625 399.234375 594.410156 C 398.632812 591.796875 398.429688 589.183594 398.027344 586.570312 C 397.425781 582.753906 397.023438 579.132812 396.824219 576.320312 L 399.035156 577.726562 C 391.796875 579.335938 385.761719 580.542969 380.335938 581.746094 C 378.726562 582.148438 377.117188 582.351562 375.910156 582.753906 L 374.90625 582.953125 L 374.503906 582.148438 C 371.890625 575.917969 369.878906 570.894531 368.269531 567.074219 C 366.863281 562.25 365.855469 559.636719 365.855469 559.636719 Z M 365.855469 559.636719 " fill-opacity="1" fill-rule="nonzero"/><path fill="#263156" d="M 56.199219 746.179688 L 766.402344 746.179688 L 766.402344 750 L 56.199219 750 Z M 56.199219 746.179688 " fill-opacity="1" fill-rule="nonzero"/><path fill="#dae4fe" d="M 689.390625 594.410156 C 689.390625 601.648438 688.585938 608.484375 686.976562 614.914062 C 680.140625 644.265625 659.027344 665.574219 633.890625 665.574219 C 610.164062 665.574219 589.855469 646.273438 582.015625 619.339844 C 579.800781 611.5 578.597656 603.257812 578.597656 594.410156 Z M 689.390625 594.410156 " fill-opacity="1" fill-rule="nonzero"/><path fill="#263156" d="M 573.769531 581.949219 L 694.214844 581.949219 L 694.214844 594.410156 L 573.769531 594.410156 Z M 573.769531 581.949219 " fill-opacity="1" fill-rule="nonzero"/><path fill="#dae4fe" d="M 689.390625 734.320312 L 578.394531 734.320312 C 578.394531 722.863281 580.605469 712.007812 584.226562 702.359375 C 593.273438 679.039062 612.175781 663.160156 633.691406 663.160156 C 656.613281 663.160156 676.320312 681.050781 684.765625 706.578125 C 687.78125 715.023438 689.390625 724.46875 689.390625 734.320312 Z M 689.390625 734.320312 " fill-opacity="1" fill-rule="nonzero"/><path fill="#263156" d="M 573.769531 734.320312 L 694.214844 734.320312 L 694.214844 746.785156 L 573.769531 746.785156 Z M 573.769531 734.320312 " fill-opacity="1" fill-rule="nonzero"/><path fill="#e25469" d="M 619.414062 704.972656 C 618.609375 705.375 618.007812 705.574219 617.402344 705.777344 C 599.910156 711.40625 588.449219 704.570312 584.425781 702.359375 C 580.605469 712.007812 578.597656 722.863281 578.597656 734.320312 L 689.589844 734.320312 C 689.589844 724.46875 687.980469 715.222656 685.167969 706.578125 C 677.929688 707.585938 668.878906 707.585938 662.042969 703.964844 C 656.011719 700.75 651.183594 699.34375 645.757812 699.34375 C 642.539062 699.34375 639.722656 697.132812 638.71875 693.914062 C 637.914062 691.101562 637.3125 686.277344 637.3125 675.824219 C 637.3125 671.402344 637.3125 667.382812 637.3125 665.371094 C 660.835938 663.5625 680.542969 642.855469 687.179688 614.914062 C 677.527344 619.539062 650.582031 630.59375 629.46875 621.953125 C 607.953125 612.90625 588.648438 617.328125 582.015625 619.339844 C 589.65625 645.46875 608.957031 664.367188 631.679688 665.570312 L 632.285156 672.40625 C 632.886719 681.453125 631.882812 687.28125 630.875 691.703125 C 629.269531 697.535156 625.046875 702.558594 619.414062 704.972656 Z M 619.414062 704.972656 " fill-opacity="1" fill-rule="nonzero"/><path stroke-linecap="butt" transform="matrix(2.010769, 0, 0, 2.010185, -133.819253, -158.201516)" fill="none" stroke-linejoin="miter" d="M 161.800119 247.900842 L 170.600389 239.500262 " stroke="#263156" stroke-width="0.5" stroke-opacity="1" stroke-miterlimit="10"/><path stroke-linecap="butt" transform="matrix(2.010769, 0, 0, 2.010185, -133.819253, -158.201516)" fill="none" stroke-linejoin="miter" d="M 235.699078 263.100781 C 235.699078 263.100781 243.599895 254.500049 242.999612 246.400669 " stroke="#263156" stroke-width="0.5" stroke-opacity="1" stroke-miterlimit="10"/><path stroke-linecap="butt" transform="matrix(2.010769, 0, 0, 2.010185, -133.819253, -158.201516)" fill="none" stroke-linejoin="miter" d="M 204.299791 185.40076 C 204.299791 185.40076 211.299211 193.700292 222.70071 190.099488 " stroke="#263156" stroke-width="0.5" stroke-opacity="1" stroke-miterlimit="10"/></svg>